/* XPM */
static char * bomb_xpm[] = {
"46 46 28 1",
" 	c None",
".	c #FF0000",
"+	c #FF00FF",
"@	c #0000FF",
"#	c #00FFFF",
"$	c #00FF00",
"%	c #FFFF00",
"&	c #7F0000",
"*	c #7F007F",
"=	c #00007F",
"-	c #007F7F",
";	c #007F00",
">	c #827F00",
",	c #000000",
"'	c #191919",
")	c #333333",
"!	c #4C4C4C",
"~	c #666666",
"{	c #7F7F7F",
"]	c #999999",
"^	c #B2B2B2",
"/	c #CCCCCC",
"(	c #E5E5E5",
"_	c #FFFFFF",
":	c #007F00",
"<	c #007F00",
"[	c #007F00",
"}	c #E0B859",
"^^/^/^/^/^/^/^/^/^/^/^/^/^/^/^/^/^/^/^/^/^/^/^",
"^^^^/^^/^^^/^^^/^^^/^^^/^^^/^^^/^^^/^^^/^^^/^]",
"^^^/^/^/^/^/^/^/^/^/^/^/^/^/^/^/^/^/^/^/^/^/]]",
"^^^________________________________________]]]",
"^^^________________________________________]]]",
"^^^________________________________________]]]",
"^^]________________________________________]]]",
"^^^_______________________________________(]]]",
"^^^________________________________________]]]",
"^^^________________________________________]]]",
"^^^________________________________________]]]",
"^^^________________________________________]]]",
"^^^________________________________________]]]",
"]^^_______________________________________(]]]",
"^^^_______________(^^^^(___(/}/}}__________]]]",
"^^^_____________(]~]^^]!{}]>.>.>.}((_______]]]",
"^^^_____________]!((]((({*..>.>.>>.](______]]]",
"]^^____________(!~__/](((~!.~.~.>.>.}(_____]]]",
"^^^_______(__(/)=@^_____(~*~.>.>.>.>.}_____]]]",
"^^^_______(/}}.!*@@~/((^{{*~.~.~.>.>.]____(]]]",
"^^]______}>..>.>.!@@@@@@@)'&~.>.~.~.>>(____]]]",
"^^^____(]~.>.>.~.~**@@@@=,,,~.~.~.>..]_____]]]",
"^^^_____].>.>.~.~.>.!&!&,,,,&~.~.>.>}/_____]]]",
"^^^____(>.~.~.>.~.~.>.~.',,'&>.~.>..]((____]]]",
"^^^_____&!.~.~.~.>.~.~.~&,,,&.>.>.>}}((____]]]",
"^^^_____}!!.!.>.~.~.~.~.',,'!.>.]]^//((___(]]]",
"^^^____(>.~.!.~.~.~.>.~.),,,~>}/}///((_____]]]",
"]^^_____.~.~.~.!.>.~.>.~&,!~^^^///((((_____]]]",
"^^^_____}}].~.>.~.~.>.]}]^^///(/(((________]]]",
"^^^____(((/]}}].>.>>]}^^////(((____________]]]",
"^^^_____(((///}{>]}^}////(((_______________]]]",
"^^^______((/(//}/^////((((________________(]]]",
"^^^______(_(((((////((_____________________]]]",
"]^^____!,,____((!,,______!,,_____~,,,,,____]]]",
"^^^____,,,______,,,______,,,_____,,__,,____]]]",
"^^^_____,,_______,,_______,,_____,,__,,____]]]",
"^^^_____,,_______,,_______,,_____,,__,,____]]]",
"]^^_____,,_______,,_______,,_____,,__,,___(]]]",
"^^^_____,,_______,,_______,,_____,,__,,____]]]",
"^^^_____,,_______,,_______,,_____,,__,,____]]]",
"^^^_____,,_______,,_______,,_____,,__,,____]]]",
"^^^_____,,_______,,_______,,_____,,,,,~____]]]",
"^^^________________________________________]]]",
"]^^]{]{]{]{]{]{]{]{]{]{]{]{]{]{]{]{]{]{]{{{{]]",
"^^{{{]{]{{]{{]{]{]{{]{{]{]{{]{{]{]{]{]{{]]{]{]",
"^{]]{]{]{]{]{]{{]{]{]{]{]{]{]{]{]{]{{]{]{{]{]{"};
