/* XPM */
static char * clock_xpm[] = {
"200 20 28 1",
" 	c None",
".	c #FF0000",
"+	c #FF00FF",
"@	c #0000FF",
"#	c #00FFFF",
"$	c #00FF00",
"%	c #FFFF00",
"&	c #7F0000",
"*	c #7F007F",
"=	c #00007F",
"-	c #007F7F",
";	c #007F00",
">	c #827F00",
",	c #000000",
"'	c #191919",
")	c #333333",
"!	c #4C4C4C",
"~	c #666666",
"{	c #7F7F7F",
"]	c #999999",
"^	c #B2B2B2",
"/	c #CCCCCC",
"(	c #E5E5E5",
"_	c #FFFFFF",
":	c #007F00",
"<	c #007F00",
"[	c #007F00",
"}	c #E0B859",
"!)!)!)!)!)!)!)!)!)!)!)!)!)!)!)!)!)!)!)!)!)!)!)!)!)!)!)!)!)!)!)!)!)!)!)!)!)!)!)!)!)!)!)!)!)!)!)!)!)!)!)!)!)!)!)!)!)!)!)!)!)!)!)!)!)!)!)!)!)!)!)!)!)!)!)!)!)!)!)!)!)!)!)!)!)!)!)!)!)!)!)!)!)!)!)!)!)!)!)!)",
"!,,,,,,,,,,,,,,,,,,_!,,,,,,,,,,,,,,,,,,_!,,,,,,,,,,,,,,,,,,_!,,,,,,,,,,,,,,,,,,_!,,,,,,,,,,,,,,,,,,_!,,,,,,,,,,,,,,,,,,_!,,,,,,,,,,,,,,,,,,_!,,,,,,,,,,,,,,,,,,_!,,,,,,,,,,,,,,,,,,_!,,,,,,,,,,,,,,,,,,_",
"!,!)!!)!!)!!)!!)!!]_!,!)!!)!!)!!)!!)!!]_!,!)!!)!!)!!)!!)!!]_!,!)!!)!!)!!)!!)!!]_!,!)!!)!!)!!)!!)!!]_!,!)!!)!!)!!)!!)!!]_!,!)!!)!!)!!)!!)!!]_!,!)!!)!!)!!)!!)!!]_!,!)!!)!!)!!)!!)!!]_!,!)!!)!!)!!)!!)!!]_",
"),)!)!)](/(/{!)!)!]_),)!)!~{//__{!)!)!]_),!)!!]]/__/^!)!)!]_),)!)!^]/(_/]!)!)!]_),)!)!!)!!(__!)!)!]_),)!)!//^/^/^_)!)!]_),)!)!)~/_^//~)!)!]_),)!)/~/__(/{{]!)!]_),)!)!~^_/(_/~)!)!]_),)!)!]/_/(/~)!!))^_",
"!,!!)!^__!{__^!!)!]_!,!!)!)!____{!)!)!]_!,!)!((^)]___(~!)!]_!,!!)^_/!~___/!!)!]_!,!!)!)!!^___)!!)!]_!,!!)!_______/)!)!]_!,!!)!{__^!(__~!)!]_!,!!)/_______(!!)!]_!,!!)^___!{___^!)!]_!,!!)/___!{__^!)!!]_",
"),!)!]___!{___])!!]_),)!!)!)____{)!!!!]_),)!{___{!____^)!!]_),)!!___{!____{)!!]_),!)!)!)/____)!)!!]_),)!!)______/)!!!!]_),!)!{___{{___])!!]_),)!~________]!)!!]_),!)!____!{____)!!]_),)!~____){___])!)^_",
"!,!)!(___!{___(!)!]_!,!)!)!!____{!)))!]_!,!)~___{)____^!)!]_!,!)!(__~)____{!)!]_!,)!!)!{^____!!)!)^_!,!)!!^^/^^~)!))!)^_!,!)!(___{!(_(~)!)^_!,!!{~{^^^/{^!)!)!]_!,!)!____{{____!)!]_!,!){____!{___(!!)]_",
"),)!~____){____!!!]_),)!!)!)____{!!!!!]_),)!!]^^)~____^)!!]_),!)!!{~!!___^!)!!]_!,)!)!{]{____)!!)!]_),)!){{)!)!)!!!!)!]_),)!!____{)!{)!!)!]_),)!~!)!!!!(]!!)!!]_),)!)^___{{___^)!!]_),!!{____){____~)!^_",
"!,!){____!{____{)!]_!,!)!)!)____{))!)!]_!,!)!)!!)^___(!!)!]_!,!)!!!){/_/]!)!)!]_),!!)!]!{____)!)!!]_!,!)!{^{/__/]))!)!]_!,!!{____^/__^)!)!]_!,)!)!!))!(_)!)!)!]_!,!!)){^_^^_^~!)!)^_!,)!!____~]____{!)]_",
"),!!{____){____{!!]_!,)!!)!!____{!)!)!]_),!)!!)!^___^!!)!!]_),)!))!!{^__/!!)!)^_!,)!!(!){____!)!)!]_!,)!!!!!)]___(!)!!]_),!){____^^___/)!!]_!,!)!)!!~(_/!)!)!!]_),)!!!]/_^/_/]!!)!]_!,!)!{____/____{)!^_",
"!,)!{____!{____{)!]_),!)!)!)____{!)!!)^_!,)!)!)/(^{!)!!)!)^_!,!!!)~!!!____~!!)]_!,!!^~!!{____!)!)!]_),!)!!)!!)____]!)!]_!,)!{____{{____~)!]_),!)!)!!(__/)!!)!)^_!,!)!(___){___^!)!]_),!)!)!{{!{____~!)]_",
"!,)!)____){____!!)^_!,)!)!)!____{)!)!!]_!,!)!)^{!!!!!)^!)!]_),))!(_())____/)!!]_),){/{{{^____{~!!)^_!,)!)(_()!____^)!!]_!,!)!____{{____{!)^_!,!)!)!/___/)!)!)!]_),!){____!{____~!!]_!,)!!!^^!!{___(!)!^_",
"!,!)!/___!{___^!)!]_!,!!)!!)____{!)!)!]_),!)!^]/______/!)!]_!,!!{___{!____^!)!]_!,!!{{{{]____{~)!)]_!,!){___{!____^!)!]_),!)!/___{{____{!)]_),!)!!!____^!)!!)!]_!,!){____){____{)!]_),!)!(__^!{___^)!)]_",
"),!)!!___){___!!)!]_),)!)!)!____{!)!)!]_!,)!!_________])!!]_!,)!~___~)____])!!]_),!!)!)!{____!!)!!]_),!!~___!!____~)!)^_!,!)!~___{{___()!!^_!,)!)!{____]!)!)!!]_),!!~____!{____!!)^_!,)!)___^)^__(!!)!^_",
"!,!)!!{(_~]_({!)!!]_!,!)!)!)____{!)!!)^_!,!!{(^______^!!)!]_),!)!^_])^___^!)!)^_!,)!!)!!{____)!!)!]_!,)!)/_{!^__({!!)!]_),!)!){(_{]__({!))]_!,!)!)!(___!!)!)!)^_!,)!){___{]__({!!)]_!,!!!{_/!~(_^!!)!)]_",
"),!)!)!!]/^]!!)!)!]_),!!)!]/^/^/^/)!)!]_),)!~~)!~^^/~)!)!)^_!,)!)!~^^/^]!)!!)!]_!,)!)!)^/^/^/^])!!]_!,!!!)~^^/^{!)!)!!]_!,!!)!!!{^/^{!)!!!]_!,)!!)!!^/~!)!)!)!]_!,!)!!!{^/^^{)!)!!]_),))!)~^/^^~!!)!)!^_",
"!,!)!!)!)!)!)!)!)!]_!,)!)!)!)!)!)!)!)!]_!,!)!)!)!)!)!!)!!)]_!,!!)!)!!)!!!)!)!!]_),!!)!!)!)!)!)!)!)^_),))!!!)!!!)!)!)!)^_),)!!))!!)!!)!!))!]_),!)!)!!!)!)!!)!!)]_),!)!)!!)!)!!)!)!!]_!,!!)!!)!!!)!)!!)!]_",
"),!!)!)!!)!!)!!)!!]_!,!)!)!)!!)!!)!!)!]_),)!!)!!)!!)!)!)!!]_),!)!!)!)!)!)!)!)!]_!,)!)!)!)!!)!!)!)!]_!,!!))!)!)!)!!)!)!]_!,!)!!!)!!)!)!)!!!]_!,!)!!))!)!)!)!)!!^_!,)!!!)!!)!)!!)!)!]_!,)!)!)!)!)!)!)!)!]_",
"!,]]]^]]]^]]]]^]]]^_),]^]^]]^]^]]^]]^]^_!,]]]^]]]^]]^]]]]^]_!,]]]]^]]^]^]^]]^]^_),^]^]^]]]]^]]^]^]]_),]]^]^]]^]]^]^]]^]_),]]]]]]]]^]]^]]]]^_),]^]]^]^]^]^]^]]]]_),^]]]]]^]^]]^]^]^]_),]^]^]]]^]^]^]^]]^_",
")___________________!___________________!___________________!___________________!___________________!___________________!___________________!___________________!___________________!___________________"};
