/* XPM */
static char * countbar_xpm[] = {
"160 20 28 1",
" 	c None",
".	c #FF0000",
"+	c #FF00FF",
"@	c #0000FF",
"#	c #00FFFF",
"$	c #00FF00",
"%	c #FFFF00",
"&	c #7F0000",
"*	c #7F007F",
"=	c #00007F",
"-	c #007F7F",
";	c #007F00",
">	c #827F00",
",	c #000000",
"'	c #191919",
")	c #333333",
"!	c #4C4C4C",
"~	c #666666",
"{	c #7F7F7F",
"]	c #999999",
"^	c #B2B2B2",
"/	c #CCCCCC",
"(	c #E5E5E5",
"_	c #FFFFFF",
":	c #007F00",
"<	c #007F00",
"[	c #007F00",
"}	c #E0B859",
".........>.>.>.>.>.>.>>>>>>>>>>>>>>}>}>}}}}}}}}}}}}}}}}}}}}}}}}%}}%}%}%%}%%%%%%%%%%%%%%%%%%%%%%%%%%%%%%%%%%%%%%%/%%/$%$%$/$%$/$$/$$$$$$$$$$$$$$$$$$$$$$$$$$$$$$$",
".......>...>.>.>.>>>.>.>.>.>>>>>}}>>>>>>>>>}>}}}}}}}}}}}}}}}%}}}%}(%(%(%%%}%%%%%%%%%%%%%%%_%%%%%%%%%%%%%%%%%/%(_(%%%%//%$/$/$/$%(__(^$^$$$$$$$$$$$$$$^$$$$$$$$$$",
".....}____}.>.>.>.>.>>>>}/(}}}/(((}>>>}>}>}>}}}}_]}}}}}}}}}}}}%}%__(_(_((%%%%%%%%%%%%%%%%(_~}%%%%%%%%%/%%/%(_____~^$%$%$%$%$%$(_____;$$$$$$$$$$$$$$$(/$$$$$$$$$$",
"....}______{>.>.>.>.>.>.(_________~&>>>>>}>}>}}_()>}}}}}}}}}}}}}}______({,%}%%%%%%%%%%%%___^>%%%%%%%%%%%%%___(^__)]/%$/$/$/$/___^)__~;^$^$$$$$$$$$$$_()$$$$$$$$$",
"...]__^!!(_(.>.>>.>>>>>>>~!!~),(_(,>>>}>}>}>}}(_/,>}}}}}}}}%}%}%(__,,,,,'~%%%%%%%%%%%%%(___^!%%%%%%%%%%%%(_(~,^_^,^$%/%$%$/$%__{,!(_);$$$$$$$$$$$$$$(_,$$$$$$$$$",
"...}_(,'.!__!.>.>>.>.>.>.>~.~!}__~'>>>>>>>}>}}__{&}}}}}}}}}}}}}}(__,}%}%%}%}%%%%%%%%%%%____]!%%%%%%%%%/%%_]''/_('!%/%$/$/$%$_(!,~$_(']$$^$$$$$$$$$$$__,$$$$$$$$$",
"...}_]'...__~~.>.>.>>>>>>>>>>>(_(,!>>}>}>}>}}}__'~}}}}}}}}}}}%}%}__,%}%}%%%%%%%%%%%%%%(_^^_^!%%%%%%%%%%%%%!>(_(''/%$%/$%$/$/$'';$(_~'$$$$$$$$$$$$$$$(_,$$$$$$$$$",
"...>__{>.}__,~.>.>.>.>.>.>.>>}__)'>>>>>>>}>}}__/,>}}}}}}}}}}}}}}%__!(%%}%}%}%%%%%%%%%__('/_]!%%%%%%%%%%%%%%___(^%/%$%$/%$%$/$%$/$_(,~$^$^$$$$$$$$$$$__,$$$$$$$$$",
"....}__}}(_{,.>.>>.>>>>>>>>>>(_^,>>>>>}>}>}>}(_{]_((}}}}}}}%}}%}(______%%%%%%%%%%%%%(__''(_^!%%%%%%%%%/%%%(______^%/%$%$/$/$/$$$__{'$$$$$$$$$$$$$$$$(_,$$$$$$$$$",
".....^____/'&>.>.>>.>.>.>>.>}__)&>>>>>>>>}>}}__(_____]}}}}}}}}}}(_____(_}}%}%%%%%%%%__!,%__]!%%%%%%%%%%%%%_(^!!(_^^/%$/%$%$%$/$(_(,;^$^$^$$$$$$$$$$$__,$$$$$$$$$",
"......]___^'.>.>.>.>>>>>>>>>/_/,>>>>>}>}>}>}}___(!!^_^}}}}}}%}%}}}!,,'/__>%%%%%%%%%___________(_%%%%%%/%%%%''!](_^;/$%$/$/$/$/$__~'$$$$$$$$$$$$$$$$$(_,$$$$$$$$$",
"......(____/.>.>.>.>.>.>.>.}__)&>>>>>>>>>}>}}___)'>]_(!}}}}}}}}%}%>]}%}(_{}}%%%%%%%____________/)^%%%%%%/%%%%%%(_~;/%/%$%$%$%$(_/';^$$^$^$$$$$$$$$$$__,$$$$$$$$$",
".....}__'^__{.>.>>.>>>>>>>>}_(,>>>>>>>}>}>}>}___,>}}(_,}}}}}}%}}}}%}%}%(_^~%%%%%%%%%~!!,,^_^,,,,'}%%%%%%%%/%%%(__'>$%$/%$/$/$(__))$$$$$$$$$$$$$$$$$$(_,$$$$$$$$$",
"...../_^,./_^~.>.>.>.>.>.>>__~'>>>>>>>>>>>}}}___,}}}__,}}}}}}}%}%}%}%}%__]!}%%%%%%%%%}}]%__^!%%%%%%%%%%%%%%/%%__],^%/%$/$%$/$__/,]^$^$^$^$$$$$$$$$$$__,$$$$$$$$$",
".....__!).(_{&>.>>.>>>>>>>}(_'!>>>>>>}>}>}>}>(__!}}}_/,}}}}}}}}}__}%}%(__)>%%%%%%%%%%%%%%(_^!%%%%%%%%%/%%(%%%(_(,~%$%$%$/$/$%__{{$%$$$$$$$$$$$$$$$$$(_,$$$$$$$$$",
".....__/.]__)!.>.>.>.>.>.>(_^'.>>>>>>>>>>}>}}}___}(__!)}}}}%}}%}___/%(__^,}}%%%%%%%%%%%%%__]!%%%%%%%%%%%__/%__(''%/%/$/%$%$/________/$^$^$$$$$$$$$$$__,$$$$$$$$$",
".....(_____!,.>.>>.>>>>>>>(_))}>>>>>>>}>}>}>}}}_____],>}}}}}}%}}%______],!%%%%%%%%%%%%%%%__{!%%%%%%%%%%%(____/''/%%$%/$%$/$%________!;$$$$$$$$$$$$$$//,$$$$$$$$$",
"......(__(!'.>.>.>.>.>.>.}_]'.>>>>>>>>>>}>}>}}}>{^]),~}}}}}}}}}}}]/__^),)%%}%%%%%%%%%%%%%%('>%%%%%%%%%%%%^((~,)/%%/%$%/$%$/$/^!),,,,';^$$$$$$$$$$$$$$;'$$$$$$$$$",
"......~!!,,&>.>.>>.>>>>>>>.')>>>>>>>>>}>>}>}>}}}>!)!>}}}}}}}%}%}%}}),,!}%}%%%%%%%%%%%%%%%%}'}%%%%%%%%%/%%%>''>%%%/%$%$%/$/$%$!!;^$$$$$$$$$$$$$$$$$$$$$$$$$$$$$$$",
".........!.>.>.>.>>.>.>.>>>>>>>>>>>>>>}>>}>}>}}}}}}}}}}}}}}}}}}}}}%}%}%}%%%}%%%%%%%%%%%%%%%%%%%%%%%%%%%%%%%%%%/%%%%/%/$%$/$/$%$$$/$^$$^$^$$$$$$$$$$$$$$$$$$$$$$$"};
