/* XPM */
static char * rbuttona_xpm[] = {
"20 20 3 1",
" 	c None",
".	c #FE3405",
"+	c #FEC623",
".......++.........+.",
"+......++.........+.",
"++......+.......+...",
".+.....+++.+...+++..",
".++++.++++++++++....",
"..+++++++++++++++...",
"..++++++++++++++....",
"...++++++++++++++...",
"...+++++++++++++++..",
"..+++++++++++++++...",
"+++++++++++++++++++.",
"+.++++++++++++++++++",
"...+++++++++++++++..",
"...++++++++++++++...",
"...++++++++++++++...",
"...++++++++++++++...",
"...++++++++++++.+.+.",
"..+.+..++++++++....+",
".+.......+.....+....",
".+.......+.....+...."};
