/* XPM */
static char * rbutton_xpm[] = {
"20 20 3 1",
" 	c None",
".	c #FE6608",
"+	c #FED22E",
"...........+......+.",
".+.....++.+++.......",
"++.+..+++++++++.+...",
"..++++.++++++.+++...",
"..++++++++++++++++..",
"..++++++++++++++++..",
".+++++++++++++++++++",
".+++++++++++++++++++",
"..+++++++++++++++++.",
"+.+++++++++++++++++.",
".+++++++++++++++++++",
".+++++++++++++++++++",
".++++++++++++++++++.",
".++++++++++++++++++.",
".+++++++++++++++++..",
"..++++++++++++++++..",
"+.+++++++++++++++...",
".+..+++++++++++.++..",
"+.......+++++++...+.",
"........++.........."};
