/* XPM */
static char * rbuttonb_xpm[] = {
"20 20 3 1",
" 	c None",
".	c #FE2504",
"+	c #FEBC09",
"....................",
".......+............",
"....................",
".......+............",
"....+...+..+........",
"....+++++++++.......",
".....+++++++++......",
".....+++++++++++....",
".....+++++++++++....",
"...++++++++++++++...",
"....++++++++++++.+..",
".....+++++++++++.+..",
".....+++++++++++....",
".....++++++++++.....",
".....+.+++++++++....",
"........+++++..+....",
"........+...........",
"....................",
"...................+",
"...................."};
