/* XPM */
static char * bomb_xpm[] = {
"46 46 351 2",
"  	c None",
". 	c #B4AFB4",
"+ 	c #C1BCC1",
"@ 	c #9B969B",
"# 	c #FFFFFF",
"$ 	c #FEFEFE",
"% 	c #FEF6FE",
"& 	c #FCFCFF",
"* 	c #E6E5FF",
"= 	c #C2BEFF",
"- 	c #ADA8FF",
"; 	c #AFA9FF",
"> 	c #C1BDFF",
", 	c #E6E4FE",
"' 	c #FAFAFF",
") 	c #FEF7F4",
"! 	c #FCEDE6",
"~ 	c #F8CBB8",
"{ 	c #F4A989",
"] 	c #F9D1C0",
"^ 	c #FAC2AA",
"/ 	c #FCBCA1",
"( 	c #FEF8F6",
"_ 	c #F6F6FF",
": 	c #A09AFF",
"< 	c #645AFF",
"[ 	c #9F99FF",
"} 	c #BAB6FF",
"| 	c #B8B3FF",
"1 	c #948EFF",
"2 	c #554AFE",
"3 	c #887CF9",
"4 	c #E4AFAD",
"5 	c #ED8357",
"6 	c #E5591E",
"7 	c #DE4000",
"8 	c #DF4000",
"9 	c #E54300",
"0 	c #EE4500",
"a 	c #F34700",
"b 	c #FABA9F",
"c 	c #FDE8DF",
"d 	c #FDEBE3",
"e 	c #9D96FF",
"f 	c #5045FF",
"g 	c #ECEBFF",
"h 	c #E9E9EB",
"i 	c #979798",
"j 	c #E2E2E3",
"k 	c #FBFBFD",
"l 	c #E5E3FE",
"m 	c #8B83FC",
"n 	c #5B25B7",
"o 	c #C93A11",
"p 	c #D43D00",
"q 	c #D63D00",
"r 	c #DA3F00",
"s 	c #E14100",
"t 	c #E34100",
"u 	c #E95B20",
"v 	c #EB571A",
"w 	c #EF6227",
"x 	c #FCE9E1",
"y 	c #FFFDFE",
"z 	c #EEEEEE",
"A 	c #5147EB",
"B 	c #6258FE",
"C 	c #FBFBFB",
"D 	c #C9C9C9",
"E 	c #AFA4A4",
"F 	c #FBD8D8",
"G 	c #FDDBDB",
"H 	c #F4D3DE",
"I 	c #624FF4",
"J 	c #962950",
"K 	c #D13C00",
"L 	c #CB3A00",
"M 	c #C83900",
"N 	c #CC3A00",
"O 	c #E24100",
"P 	c #E44301",
"Q 	c #F6BDA5",
"R 	c #FEF7F3",
"S 	c #FEF4FE",
"T 	c #FEF4EF",
"U 	c #ECCABB",
"V 	c #432F26",
"W 	c #060065",
"X 	c #1507FD",
"Y 	c #B6B2FE",
"Z 	c #F8F8FE",
"` 	c #FDFDFD",
" .	c #F2F1FE",
"..	c #6358FD",
"+.	c #61198A",
"@.	c #C03600",
"#.	c #C63800",
"$.	c #CF3B00",
"%.	c #D43C00",
"&.	c #D23C00",
"*.	c #D33C00",
"=.	c #D83E00",
"-.	c #E94400",
";.	c #F6895B",
">.	c #FEFAF9",
",.	c #FEEFE9",
"'.	c #FBD2C2",
").	c #F6A380",
"!.	c #EF6C35",
"~.	c #E5561A",
"{.	c #AF3401",
"].	c #4F1536",
"^.	c #1502EB",
"/.	c #2618FE",
"(.	c #7C73FE",
"_.	c #CBC8FE",
":.	c #E3E1FE",
"<.	c #C5C2FE",
"[.	c #786FFD",
"}.	c #7067F9",
"|.	c #782971",
"1.	c #CD3B00",
"2.	c #CA3900",
"3.	c #C93900",
"4.	c #D03B00",
"5.	c #D53D00",
"6.	c #D93E00",
"7.	c #E04100",
"8.	c #EA4400",
"9.	c #F78C5E",
"0.	c #F2926B",
"a.	c #F26227",
"b.	c #E84502",
"c.	c #D83F00",
"d.	c #D33D00",
"e.	c #D03C00",
"f.	c #C7390A",
"g.	c #751F77",
"h.	c #1000FD",
"i.	c #1000FE",
"j.	c #2012FE",
"k.	c #2416FE",
"l.	c #1203FD",
"m.	c #1607FA",
"n.	c #2D23B5",
"o.	c #2E0E16",
"p.	c #812400",
"q.	c #CE3B00",
"r.	c #C73900",
"s.	c #CF3C00",
"t.	c #DF4100",
"u.	c #EF4500",
"v.	c #FA6C30",
"w.	c #DB9071",
"x.	c #C13800",
"y.	c #D93F00",
"z.	c #C13706",
"A.	c #761F6C",
"B.	c #340BCE",
"C.	c #2205E5",
"D.	c #1B03EC",
"E.	c #0F00E3",
"F.	c #0A00B8",
"G.	c #06006C",
"H.	c #010013",
"I.	c #000000",
"J.	c #080200",
"K.	c #B03200",
"L.	c #C13700",
"M.	c #BE3700",
"N.	c #C03800",
"O.	c #CA3B00",
"P.	c #D73E00",
"Q.	c #E64200",
"R.	c #F24B06",
"S.	c #F97A45",
"T.	c #DC835F",
"U.	c #C53902",
"V.	c #D83D00",
"W.	c #C33700",
"X.	c #C53800",
"Y.	c #CA3A00",
"Z.	c #CD3A01",
"`.	c #B6331D",
" +	c #9D2A3A",
".+	c #942844",
"++	c #792138",
"@+	c #340E08",
"#+	c #020000",
"$+	c #872600",
"%+	c #C53900",
"&+	c #C93A00",
"*+	c #E54200",
"=+	c #EE8356",
"-+	c #F2DED6",
";+	c #C24818",
">+	c #C93800",
",+	c #D23A00",
"'+	c #C13600",
")+	c #C83800",
"!+	c #CB3900",
"~+	c #B63400",
"{+	c #2B0C00",
"]+	c #0D0300",
"^+	c #8E2900",
"/+	c #C83A00",
"(+	c #C63900",
"_+	c #DC4000",
":+	c #E74300",
"<+	c #E88358",
"[+	c #E5E5E5",
"}+	c #F2F2F2",
"|+	c #9A2F06",
"1+	c #962800",
"2+	c #A72C00",
"3+	c #B73200",
"4+	c #BC3400",
"5+	c #BF3700",
"6+	c #BD3600",
"7+	c #340F00",
"8+	c #8D2900",
"9+	c #DD470A",
"0+	c #E15217",
"a+	c #DD764B",
"b+	c #D6BDB3",
"c+	c #DFDFDF",
"d+	c #F8F8F8",
"e+	c #CF9F8B",
"f+	c #993E1A",
"g+	c #902700",
"h+	c #AF2F00",
"i+	c #AC2F00",
"j+	c #BD3500",
"k+	c #CD3A00",
"l+	c #C43800",
"m+	c #BC3600",
"n+	c #C23800",
"o+	c #370F00",
"p+	c #010000",
"q+	c #962B00",
"r+	c #DE4202",
"s+	c #D95A27",
"t+	c #D17651",
"u+	c #C89A87",
"v+	c #C2B6B1",
"w+	c #C6C6C6",
"x+	c #D2D2D2",
"y+	c #E0E0E0",
"z+	c #F0E4EF",
"A+	c #FCF2F1",
"B+	c #DB7248",
"C+	c #C03B06",
"D+	c #BA3400",
"E+	c #A32D00",
"F+	c #AE3100",
"G+	c #BE3600",
"H+	c #B53400",
"I+	c #BB3600",
"J+	c #C33800",
"K+	c #C73A00",
"L+	c #070201",
"M+	c #9A4725",
"N+	c #D17A56",
"O+	c #C5A192",
"P+	c #C1B5B0",
"Q+	c #C0BEBC",
"R+	c #C4C4C4",
"S+	c #DEDEDE",
"T+	c #EAEAEA",
"U+	c #BB3500",
"V+	c #B23300",
"W+	c #9F2D00",
"X+	c #CB3B00",
"Y+	c #D23D00",
"Z+	c #DB3F00",
"`+	c #441300",
" @	c #0E0D0D",
".@	c #434343",
"+@	c #6A6A6A",
"@@	c #AFACAB",
"#@	c #BFBFBF",
"$@	c #C2C2C2",
"%@	c #C7C7C7",
"&@	c #CDCDCD",
"*@	c #D6D6D6",
"=@	c #E6E6E6",
"-@	c #EFEFEF",
";@	c #F6F6F6",
">@	c #D89D85",
",@	c #D79174",
"'@	c #CA7E5F",
")@	c #A33205",
"!@	c #E34E12",
"~@	c #CC4814",
"{@	c #D63E00",
"]@	c #DD4102",
"^@	c #DD5319",
"/@	c #D8683A",
"(@	c #CC8D73",
"_@	c #B6A59D",
":@	c #B4B4B4",
"<@	c #C0C0C0",
"[@	c #C3C3C3",
"}@	c #CFCFCF",
"|@	c #D7D7D7",
"1@	c #E7E7E7",
"2@	c #F0F0F0",
"3@	c #F5F5F5",
"4@	c #FAFAFA",
"5@	c #FCFCFC",
"6@	c #ECECEC",
"7@	c #E1E1E1",
"8@	c #D4CBC7",
"9@	c #C38D77",
"0@	c #CE937B",
"a@	c #D3B3A6",
"b@	c #C77C5C",
"c@	c #A82F00",
"d@	c #DB4407",
"e@	c #DC5017",
"f@	c #D66C40",
"g@	c #CB947D",
"h@	c #C4AA9F",
"i@	c #C0B9B6",
"j@	c #C8C8C8",
"k@	c #CECECE",
"l@	c #D5D5D5",
"m@	c #F4F4F4",
"n@	c #F7F7F7",
"o@	c #E4E4E4",
"p@	c #D9D9D9",
"q@	c #D1D1D1",
"r@	c #CAB2A8",
"s@	c #BE6744",
"t@	c #CB7553",
"u@	c #CB937D",
"v@	c #BFB2AD",
"w@	c #BCBCBC",
"x@	c #F9F9F9",
"y@	c #EDEDED",
"z@	c #DBDBDB",
"A@	c #D2D1D1",
"B@	c #CCC6C4",
"C@	c #C7C4C3",
"D@	c #FEF5FD",
"E@	c #D3D3D3",
"F@	c #F3F3F3",
"G@	c #555555",
"H@	c #4E4E4E",
"I@	c #727272",
"J@	c #8F8A8F",
". + + + + + + + + + + + + + + + + + + + + + + + + + + + + + + + + + + + + + + + + + + + + + ",
". . + + + + + + + + + + + + + + + + + + + + + + + + + + + + + + + + + + + + + + + + + + + @ ",
". . . + + + + + + + + + + + + + + + + + + + + + + + + + + + + + + + + + + + + + + + + + @ @ ",
". . . # # # # # # # # # # # # # # # # # # # # # # # # # # # # # # # # # # # # # # # # @ @ @ ",
". . . # # # # # # # # # # # # # # # # # # # # # # # # # # # # # # # # # # # # # # # # @ @ @ ",
". . . # # # # # # # # # # # # # # # # # # # # # # # # # # # # # # # # # # # # # # # # @ @ @ ",
". . . # # # # # # # # # # # # # # # # # # # # # # # # # # # # # # # # # # # # # # # # @ @ @ ",
". . . # # # # # # # # # # # # # # # # # # # # # # # # # # # # # # # # # # # # # # # # @ @ @ ",
". . . # # # # # # # # # # # # # # # # # # # # # # # # # # # # # # # # # # # # # # # # @ @ @ ",
". . . # # # # # # # # # # # # # # # # # # # # # # # # # # # # # # # # # # # # # # # # @ @ @ ",
". . . # # # # # # # # # # # # # # # # # # # # # # # # # # # # # # # # # # # # # # # # @ @ @ ",
". . . # # # # # # # # # # # # # # # # # # # # # # # # # # # # # # # # # # # # # # # # @ @ @ ",
". . . # # # # # # # # # # # # # # # # # # # # # # # # # # # # # # # # # # # # # # # # @ @ @ ",
". . . # # # # # # # # # # # # # # # # # # # # $ # # # # # # # # # # # # # # # # # # # @ @ @ ",
". . . # # # # # # # # # # # % # # & * = - ; > , ' # ) ! ~ { ] ^ / ( # # # # # # # # # @ @ @ ",
". . . # # # # # # # # $ $ # # # _ : < [ } | 1 2 3 4 5 6 7 8 9 0 a b c d $ # # # # # # @ @ @ ",
". . . # # # # # # # # $ $ $ $ # e f g h i j k l m n o p q r 7 s t u v w x y # # # # # @ @ @ ",
". . . # # # # # # # # $ $ $ $ z A B $ C D E F G H I J K L M N q 8 O O P Q R # # # # # @ @ @ ",
". . . # # # # # # # S $ $ T U V W X Y Z $ $ $ `  ...+.@.#.$.%.%.&.*.=.O -.;.# # # # # @ @ @ ",
". . . # # # # # # >.,.'.).!.~.{.].^./.(._.:.l <.[.}.|.1.1.2.3.N 4.5.6.7.8.9.# # # # # @ @ @ ",
". . . # # # # # # 0.a.b.7.c.d.e.f.g.h.i.i.j.k.l.m.n.o.p.2.q.e.q.3.r.s.t.u.v.# # # # # @ @ @ ",
". . . # # # # # w.x.7.y.K q.$.$.L z.A.B.C.D.E.F.G.H.I.J.K.r.L.M.N.O.P.Q.R.S.# # # # # @ @ @ ",
". . . # # # # # T.U.V.q &.N #.W.X.Y.Z.`. +.+++@+#+I.I.I.$+M.x.%+&+s.c.*+=+-+# # # # # @ @ @ ",
". . . # # # # # ;+>+,+>+'+W.2.$.1.3.)+!+$.s.N ~+{+]+I.I.^+/+M (+r.e._+:+<+[+}+# # # # @ @ @ ",
". . . # # # # # |+1+2+3+4+)+>+3.L q.$.L X.5+6+M.7+I.I.I.8+(+Y.e.P.9+0+a+b+c+z d+# # # @ @ @ ",
". . . # # # # # e+f+g+h+i+j+k+q.2.l+M.m+M.n+r.&+o+I.I.p+q+6.r+s+t+u+v+w+x+y+z+# # # # @ @ @ ",
". . . # # # # A+B+C+j+D+E+F+G+H+I+5+J+r.&+/+(+K+o+I.#+L+M+N+O+P+Q+R+D x+S+T+# # # # # @ @ @ ",
". . . # # # # # ~+2.V.G+U+L.V+W+G+&+r.(+(+X+Y+Z+`+ @.@+@@@#@$@%@&@*@S+=@-@;@# # # # # @ @ @ ",
". . . # # # # # >@,@'@)@$.!@~@F+'+M 1.{@]@^@/@(@_@:@<@[@D }@|@c+1@2@3@4@5@$ # # # # # @ @ @ ",
". . . # # # # # 6@7@8@9@0@a@b@c@L d@e@f@g@h@i@<@[@j@k@l@S+=@z m@d+5@` $ $ # # # # # # @ @ @ ",
". . . # # # # n@-@o@p@q@k@&@r@s@t@u@v@w@#@[@j@}@*@S+=@z 3@x@5@$ $ # # # # # # # # # # @ @ @ ",
". . . # # # # # m@y@[+S+z@|@A@B@C@R+[@%@k@*@S+1@z m@x@5@` $ $ D@# # # # # # # # # # # @ @ @ ",
". . . # # # # # 5@n@}+z 6@=@y+z@*@E@l@z@[+y@F@x@5@` $ $ # # # # # # # # # # # # # # # @ @ @ ",
". . . # # # # G@I.I.5@4@d+;@F@-@H@I.I.m@x@5@$ # # G@I.I.# # # # # I@I.I.I.I.I.# # # # @ @ @ ",
". . . # # # # I.I.I.$ $ ` ` 5@4@I.I.I.` $ $ # # # I.I.I.# # # # # I.I.# # I.I.# # # # @ @ @ ",
". . . # # # # # I.I.$ $ $ # # # D@I.I.# # # # # # # I.I.# # # # # I.I.# # I.I.# # # # @ @ @ ",
". . . # # # # # I.I.# # # # # # # I.I.# # # # # # # I.I.# # # # # I.I.# # I.I.# # # # @ @ @ ",
". . . # # # # # I.I.# # # # # # # I.I.# # # # # # # I.I.# # # # # I.I.# # I.I.# # # # @ @ @ ",
". . . # # # # # I.I.# # # # # # # I.I.# # # # # # # I.I.# # # # # I.I.# # I.I.# # # # @ @ @ ",
". . . # # # # # I.I.# # # # # # # I.I.# # # # # # # I.I.# # # # # I.I.# # I.I.# # # # @ @ @ ",
". . . # # # # # I.I.# # # # # # # I.I.# # # # # # # I.I.# # # # # I.I.# # I.I.# # # # @ @ @ ",
". . . # # # # # I.I.# # # # # # # I.I.# # # # # # # I.I.# # # # # I.I.I.I.I.I@# # # # @ @ @ ",
". . . # # # # # # # # # # # # # # # # # # # # # # # # # # # # # # # # # # # # # # # # @ @ @ ",
". . . J@J@J@J@J@J@J@J@J@J@J@J@J@J@J@J@J@J@J@J@J@J@J@J@J@J@J@J@J@J@J@J@J@J@J@J@J@J@J@J@J@@ @ ",
". . J@J@J@J@J@J@J@J@J@J@J@J@J@J@J@J@J@J@J@J@J@J@J@J@J@J@J@J@J@J@J@J@J@J@J@J@J@J@J@J@J@J@J@@ ",
". J@J@J@J@J@J@J@J@J@J@J@J@J@J@J@J@J@J@J@J@J@J@J@J@J@J@J@J@J@J@J@J@J@J@J@J@J@J@J@J@J@J@J@J@J@"};
