/* XPM */
static char * cbutton_xpm[] = {
"20 20 80 1",
" 	c None",
".	c #BDBEBD",
"+	c #FFFFFF",
"@	c #000000",
"#	c #5A5D5A",
"$	c #B1B4BF",
"%	c #B7B9BD",
"&	c #D9DAD9",
"*	c #F4F4F4",
"=	c #FEFEFE",
"-	c #858EDA",
";	c #0013CD",
">	c #A4A8C1",
",	c #E2E2E2",
"'	c #FE7F9E",
")	c #5B63AD",
"!	c #0013D3",
"~	c #8A90C6",
"{	c #BCBDBD",
"]	c #D0D0D0",
"^	c #FEDFE6",
"/	c #FE507B",
"(	c #FDFDFD",
"_	c #1121BB",
":	c #0010AF",
"<	c #B4B6BE",
"[	c #E9EAE9",
"}	c #FE6289",
"|	c #FE82A1",
"1	c #626BC1",
"2	c #0013D5",
"3	c #848BC7",
"4	c #F9F9F9",
"5	c #FE3466",
"6	c #FEEFF2",
"7	c #E5E5EA",
"8	c #5662CF",
"9	c #FECFDA",
"0	c #FE537D",
"a	c #FAFAFD",
"b	c #303CB0",
"c	c #757575",
"d	c #B0B1B0",
"e	c #E9E9F1",
"f	c #0010B0",
"g	c #2733A2",
"h	c #5E5E5E",
"i	c #ADB0D5",
"j	c #0012C0",
"k	c #25319F",
"l	c #535353",
"m	c #6D6E6D",
"n	c #4852BA",
"o	c #0013CA",
"p	c #323B8D",
"q	c #575757",
"r	c #676867",
"s	c #949BDF",
"t	c #8F96E2",
"u	c #0012C4",
"v	c #0214D2",
"w	c #484D72",
"x	c #585958",
"y	c #6E79E8",
"z	c #D7DAF9",
"A	c #6E79EC",
"B	c #0015DF",
"C	c #0015DE",
"D	c #535886",
"E	c #616266",
"F	c #A3A3A3",
"G	c #0217F5",
"H	c #0017FB",
"I	c #0018FF",
"J	c #0016FA",
"K	c #0116F2",
"L	c #6B6F8E",
"M	c #A5A6AA",
"N	c #BABCBD",
"O	c #B9BABD",
"....................",
".++++++++++++++++++@",
".+................#@",
".+......+@........#@",
".+......+@$%......#@",
".+....&*=*-;>.....#@",
".+...,==='=)!~{...#@",
".+..]===^/=(_:<...#@",
".+..[===}|==123...#@",
".+..4===56==7!8...#@",
".+..===90===a!bcd.#@",
".+..4==69===efghc.#@",
".+..[=======ijklm.#@",
".+..]=======nopqr.#@",
".+...s=====tuvwx..#@",
".+....yz=zABCDEF..#@",
".+.....GHIJKLM{...#@",
".+........NON.....#@",
".+#################@",
".@@@@@@@@@@@@@@@@@@@"};
