/* XPM */
static char * clock_xpm[] = {
"200 20 13 1",
" 	c None",
".	c #424142",
"+	c #000000",
"@	c #FFFFFF",
"#	c #A5A2A5",
"$	c #959595",
"%	c #D4D4D4",
"&	c #E9E9E9",
"*	c #818081",
"=	c #6B6A6B",
"-	c #C0BFC0",
";	c #565556",
">	c #AAAAAA",
"........................................................................................................................................................................................................",
".++++++++++++++++++@.++++++++++++++++++@.++++++++++++++++++@.++++++++++++++++++@.++++++++++++++++++@.++++++++++++++++++@.++++++++++++++++++@.++++++++++++++++++@.++++++++++++++++++@.++++++++++++++++++@",
".+................#@.+................#@.+................#@.+................#@.+................#@.+................#@.+................#@.+................#@.+................#@.+................#@",
".+.....$%%&%*.....#@.+....=*-%@@*.....#@.+...;$$-@@%>;....#@.+....>>-&@%$.....#@.+.......;&@@.....#@.+....%%-----@....#@.+.....=-@--%=....#@.+...-=%@@&-**$...#@.+....=-@%&@-=....#@.+....$%@%&-=.....#@",
".+....-@@;*@@-....#@.+......@@@@*.....#@.+...&&>.$@@@&;...#@.+...-@%.=@@@%....#@.+.......-@@@.....#@.+....@@@@@@@-....#@.+....*@@-.&@@=...#@.+...%@@@@@@@&;...#@.+...>@@@;*@@@>...#@.+...-@@@.*@@-....#@",
".+...$@@@.*@@@$...#@.+......@@@@*.....#@.+..*@@@*.@@@@>...#@.+...@@@*.@@@@*...#@.+......-@@@@.....#@.+....@@@@@@-.....#@.+...*@@@**@@@$...#@.+..=@@@@@@@@$....#@.+...@@@@.*@@@@...#@.+..=@@@@.*@@@$...#@",
".+...&@@@.*@@@&...#@.+......@@@@*.....#@.+..=@@@*.@@@@-...#@.+...&@@=.@@@@*...#@.+.....*>@@@@.....#@.+....>--->=......#@.+...&@@@*.&@&;...#@.+..*=*>---*-.....#@.+...@@@@**@@@@...#@.+..*@@@@.*@@@&...#@",
".+..=@@@@.*@@@@;..#@.+......@@@@*.....#@.+...$->.;@@@@>...#@.+...;*=.;@@@-....#@.+....*$*@@@@.....#@.+...**...........#@.+..;@@@@*..*.....#@.+..=.....;&$.....#@.+...>@@@**@@@>...#@.+..*@@@@.*@@@@=..#@",
".+..*@@@@.*@@@@*..#@.+......@@@@*.....#@.+.......-@@@&;...#@.+......*-@%$.....#@.+...;>.*@@@@.....#@.+...*>*-@@%$.....#@.+..*@@@@>%@@>....#@.+.......;&@......#@.+....*-@>-@-=....#@.+..;@@@@;$@@@@*..#@",
".+..*@@@@.*@@@@*..#@.+......@@@@*.....#@.+......>@@@>;....#@.+......*-@@%;....#@.+..;%;.*@@@@.....#@.+...;;..$@@@&....#@.+..*@@@@->@@@-...#@.+......;&@%......#@.+....$%@>-@%$....#@.+...*@@@@%@@@@*..#@",
".+..*@@@@.*@@@@*..#@.+......@@@@*.....#@.+.....-&>*.......#@.+....=...@@@@=...#@.+..-=..*@@@@.....#@.+........@@@@$...#@.+..*@@@@**@@@@=..#@.+.....;&@@-......#@.+...&@@@.*@@@-...#@.+.....**;*@@@@=..#@",
".+...@@@@.*@@@@...#@.+......@@@@*.....#@.+....>$.;;...>...#@.+...&@&..@@@@-...#@.+.*-***>@@@@*=...#@.+...&@&..@@@@-...#@.+...@@@@**@@@@*..#@.+.....%@@@-......#@.+..*@@@@.*@@@@=..#@.+...;->;.*@@@&...#@",
".+...%@@@.*@@@-...#@.+......@@@@*.....#@.+...>$%@@@@@@%...#@.+..*@@@*.@@@@-...#@.+.;****>@@@@*=...#@.+..*@@@*.@@@@>...#@.+...%@@@**@@@@*..#@.+....;@@@@-......#@.+..*@@@@.*@@@@*..#@.+...&@@>.*@@@>...#@",
".+...;@@@.*@@@;...#@.+......@@@@*.....#@.+..;@@@@@@@@@$...#@.+..=@@@;.@@@@$...#@.+......*@@@@.....#@.+..=@@@;;@@@@=...#@.+...=@@@**@@@&...#@.+....*@@@@$......#@.+..=@@@@.*@@@@;..#@.+...@@@>.>@@&....#@",
".+....*&@=$@&*....#@.+......@@@@*.....#@.+..*&-@@@@@@-....#@.+...-@$.>@@@>....#@.+......*@@@@.....#@.+...-@*.-@@&*....#@.+....*&@*$@@&*...#@.+.....&@@@;......#@.+...*@@@*$@@&*...#@.+...*@%;=&@-;....#@",
".+.....;$--$......#@.+....$-------....#@.+..=;..=>--=.....#@.+....=>---$;.....#@.+.....-------$...#@.+....=>---*......#@.+......*---*.....#@.+.....;--=.......#@.+....;*--->*.....#@.+....=>-->=......#@",
".+................#@.+................#@.+................#@.+................#@.+................#@.+................#@.+................#@.+................#@.+................#@.+................#@",
".+................#@.+................#@.+................#@.+................#@.+................#@.+................#@.+................#@.+................#@.+................#@.+................#@",
".+#################@.+#################@.+#################@.+#################@.+#################@.+#################@.+#################@.+#################@.+#################@.+#################@",
".@@@@@@@@@@@@@@@@@@@.@@@@@@@@@@@@@@@@@@@.@@@@@@@@@@@@@@@@@@@.@@@@@@@@@@@@@@@@@@@.@@@@@@@@@@@@@@@@@@@.@@@@@@@@@@@@@@@@@@@.@@@@@@@@@@@@@@@@@@@.@@@@@@@@@@@@@@@@@@@.@@@@@@@@@@@@@@@@@@@.@@@@@@@@@@@@@@@@@@@"};
