/* XPM */
static char * countbar_xpm[] = {
"160 20 430 2",
"  	c None",
". 	c #FF2000",
"+ 	c #FF2300",
"@ 	c #FF2600",
"# 	c #FF2900",
"$ 	c #FF2B00",
"% 	c #FF2E00",
"& 	c #FF3100",
"* 	c #FF3400",
"= 	c #FF3600",
"- 	c #FF3900",
"; 	c #FF3C00",
"> 	c #FF3F00",
", 	c #FF4100",
"' 	c #FF4400",
") 	c #FF4700",
"! 	c #FF4A00",
"~ 	c #FF4C00",
"{ 	c #FF4F00",
"] 	c #FF5200",
"^ 	c #FF5500",
"/ 	c #FF5700",
"( 	c #FF5A00",
"_ 	c #FF5D00",
": 	c #FF6000",
"< 	c #FF6200",
"[ 	c #FF6500",
"} 	c #FF6800",
"| 	c #FF6B00",
"1 	c #FF6D00",
"2 	c #FF7000",
"3 	c #FF7300",
"4 	c #FF7600",
"5 	c #FF7800",
"6 	c #FF7B00",
"7 	c #FF7E00",
"8 	c #FF8100",
"9 	c #FF8300",
"0 	c #FF8600",
"a 	c #FF8900",
"b 	c #FF8C00",
"c 	c #FF8E00",
"d 	c #FF9100",
"e 	c #FF9400",
"f 	c #FF9700",
"g 	c #FF9900",
"h 	c #FF9C00",
"i 	c #FF9F00",
"j 	c #FFA200",
"k 	c #FFA400",
"l 	c #FFA700",
"m 	c #FFAA00",
"n 	c #FFAD00",
"o 	c #FFAF00",
"p 	c #FFB200",
"q 	c #FFB500",
"r 	c #FFB800",
"s 	c #FFBA00",
"t 	c #FFBD00",
"u 	c #FFC000",
"v 	c #FFC300",
"w 	c #FFC500",
"x 	c #FFC800",
"y 	c #FFCB00",
"z 	c #FFCE00",
"A 	c #FFD000",
"B 	c #FFD300",
"C 	c #FFD600",
"D 	c #FFD900",
"E 	c #FFDB00",
"F 	c #FFDE00",
"G 	c #FFE100",
"H 	c #FFE400",
"I 	c #FFE600",
"J 	c #FFE900",
"K 	c #FFEC00",
"L 	c #FFEF00",
"M 	c #FFF100",
"N 	c #FFF400",
"O 	c #FFF700",
"P 	c #FFF900",
"Q 	c #F9F900",
"R 	c #F4F900",
"S 	c #EFF800",
"T 	c #EAF800",
"U 	c #E4F800",
"V 	c #DFF700",
"W 	c #DAF700",
"X 	c #D5F700",
"Y 	c #D0F600",
"Z 	c #CAF600",
"` 	c #C5F500",
" .	c #C0F500",
"..	c #BBF500",
"+.	c #B6F400",
"@.	c #B0F400",
"#.	c #ABF400",
"$.	c #A6F300",
"%.	c #A1F300",
"&.	c #9CF200",
"*.	c #96F200",
"=.	c #91F200",
"-.	c #8CF100",
";.	c #87F100",
">.	c #81F100",
",.	c #7CF000",
"'.	c #77F000",
").	c #72EF00",
"!.	c #6DEF00",
"~.	c #67EF00",
"{.	c #62EE00",
"].	c #5DEE00",
"^.	c #58EE00",
"/.	c #53ED00",
"(.	c #4DED00",
"_.	c #48EC00",
":.	c #43EC00",
"<.	c #3EEC00",
"[.	c #39EB00",
"}.	c #33EB00",
"|.	c #2EEB00",
"1.	c #29EA00",
"2.	c #24EA00",
"3.	c #1EE900",
"4.	c #FF9538",
"5.	c #FFA755",
"6.	c #FF8C1C",
"7.	c #FFC255",
"8.	c #FFDC38",
"9.	c #FFE355",
"0.	c #FFE555",
"a.	c #FFE755",
"b.	c #FFE955",
"c.	c #FFEB55",
"d.	c #FFED55",
"e.	c #FFFB55",
"f.	c #FFFFFF",
"g.	c #FFF91C",
"h.	c #D1F855",
"i.	c #E6FBAA",
"j.	c #F5FDE2",
"k.	c #AFF41C",
"l.	c #93F355",
"m.	c #D9FBC6",
"n.	c #C2F8AA",
"o.	c #4FED38",
"p.	c #36EB1C",
"q.	c #FF8A71",
"r.	c #FFE7E2",
"s.	c #FFE8E2",
"t.	c #FF7D55",
"u.	c #FF9655",
"v.	c #FFCBAA",
"w.	c #FFCCAA",
"x.	c #FFCDAA",
"y.	c #FFCEAA",
"z.	c #FFCFAA",
"A.	c #FFD0AA",
"B.	c #E2C6AA",
"C.	c #E37200",
"D.	c #FFE0AA",
"E.	c #C69F55",
"F.	c #FFDF55",
"G.	c #F5F3E2",
"H.	c #FFFA38",
"I.	c #717171",
"J.	c #E3DD00",
"K.	c #DEF971",
"L.	c #F7FDE2",
"M.	c #616755",
"N.	c #8FD800",
"O.	c #77F01C",
"P.	c #CAF9AA",
"Q.	c #497438",
"R.	c #E5FCE2",
"S.	c #B1E6AA",
"T.	c #1ACF00",
"U.	c #FFB8AA",
"V.	c #C67155",
"W.	c #FFDBC6",
"X.	c #555555",
"Y.	c #552B00",
"Z.	c #FFC971",
"`.	c #383838",
" +	c #AA7100",
".+	c #E2E2E2",
"++	c #8D8D8D",
"@+	c #1D1A00",
"#+	c #FFFEE2",
"$+	c #AAAAAA",
"%+	c #8E8A00",
"&+	c #D5F61C",
"*+	c #EDFCAA",
"=+	c #E4E5E2",
"-+	c #6BA200",
";+	c #7DF01C",
">+	c #EDFDE2",
",+	c #30B800",
"'+	c #0A4D00",
")+	c #FF5738",
"!+	c #AA2B00",
"~+	c #FF731C",
"{+	c #7B6355",
"]+	c #000000",
"^+	c #AA5600",
"/+	c #FFF4E2",
"(+	c #C6C6C6",
"_+	c #C78400",
":+	c #726800",
"<+	c #FFFC8D",
"[+	c #555300",
"}+	c #F4FCC6",
"|+	c #E9EBE2",
"1+	c #B0B3AA",
"2+	c #7DBD00",
"3+	c #BDF78D",
"4+	c #1B4F00",
"5+	c #E8F6E2",
"6+	c #299D00",
"7+	c #FF9F8D",
"8+	c #551100",
"9+	c #AA2400",
"0+	c #B33D1C",
"a+	c #4E3D38",
"b+	c #E35900",
"c+	c #AA4500",
"d+	c #AA4700",
"e+	c #AA4800",
"f+	c #AA4A00",
"g+	c #DFA271",
"h+	c #1D0E00",
"i+	c #FFBD55",
"j+	c #392500",
"k+	c #EFFCAA",
"l+	c #8A8F71",
"m+	c #1C1C1C",
"n+	c #151B00",
"o+	c #CCD7AA",
"p+	c #E8EBE2",
"q+	c #375100",
"r+	c #EEFDE2",
"s+	c #E7EEE2",
"t+	c #276A00",
"u+	c #78F038",
"v+	c #E2E4E2",
"w+	c #1D0500",
"x+	c #C73500",
"y+	c #FFEFE2",
"z+	c #8E4600",
"A+	c #FFDEAA",
"B+	c #8E5C00",
"C+	c #435200",
"D+	c #6D8800",
"E+	c #E2F2AA",
"F+	c #131B00",
"G+	c #93D800",
"H+	c #0B1B00",
"I+	c #3E9E00",
"J+	c #B2F68D",
"K+	c #071A00",
"L+	c #8D5F55",
"M+	c #FF7B55",
"N+	c #AA2D00",
"O+	c #FFAF71",
"P+	c #1D0D00",
"Q+	c #FFF3E2",
"R+	c #E39400",
"S+	c #FFFDAA",
"T+	c #E5E5E2",
"U+	c #C6C5AA",
"V+	c #EBFBAA",
"W+	c #AEE138",
"X+	c #7CF138",
"Y+	c #E5EDE2",
"Z+	c #258300",
"`+	c #ECB5AA",
" @	c #ECCDC6",
".@	c #FF8F71",
"+@	c #FFEEE2",
"@@	c #C75F00",
"#@	c #A69D8D",
"$@	c #FFF5E2",
"%@	c #FFC955",
"&@	c #FFF28D",
"*@	c #1D1C00",
"=@	c #F5F3AA",
"-@	c #E7FA8D",
";@	c #9CCB38",
">@	c #081A00",
",@	c #C6AFAA",
"'@	c #721D00",
")@	c #FFAD71",
"!@	c #391A00",
"~@	c #FFBB55",
"{@	c #BC9438",
"]@	c #D0CCAA",
"^@	c #F8FDE2",
"/@	c #ECEEE2",
"(@	c #A4F571",
"_@	c #E4E7E2",
":@	c #288300",
"<@	c #A07971",
"[@	c #390E00",
"}@	c #FFDEC6",
"|@	c #C75D00",
"1@	c #E5E4E2",
"2@	c #C78D00",
"3@	c #C6B255",
"4@	c #7A7438",
"5@	c #161B00",
"6@	c #3E5100",
"7@	c #79A200",
"8@	c #D1E0AA",
"9@	c #355100",
"0@	c #73EF1C",
"a@	c #C6B1AA",
"b@	c #FF8B38",
"c@	c #1D1200",
"d@	c #BC9138",
"e@	c #553C00",
"f@	c #AA8E00",
"g@	c #AA9000",
"h@	c #E3C800",
"i@	c #E8E7E2",
"j@	c #C7B800",
"k@	c #C2C200",
"l@	c #EDFCC6",
"m@	c #2A8300",
"n@	c #8D6355",
"o@	c #C75C00",
"p@	c #C78200",
"q@	c #FFF6AA",
"r@	c #726900",
"s@	c #7A7838",
"t@	c #C6F638",
"u@	c #598700",
"v@	c #99F455",
"w@	c #123400",
"x@	c #FFD0C6",
"y@	c #E33200",
"z@	c #D9CAC6",
"A@	c #FF781C",
"B@	c #FFF8C6",
"C@	c #554E00",
"D@	c #C7C200",
"E@	c #AAA600",
"F@	c #F6FDE2",
"G@	c #40B800",
"H@	c #551200",
"I@	c #FFBEAA",
"J@	c #551600",
"K@	c #FFAA71",
"L@	c #8E4000",
"M@	c #FFE8C6",
"N@	c #FFD171",
"O@	c #FFF9E2",
"P@	c #FFDA1C",
"Q@	c #D9F71C",
"R@	c #E8FBAA",
"S@	c #4A6C00",
"T@	c #617855",
"U@	c #8CF355",
"V@	c #88F355",
"W@	c #5CEE1C",
"X@	c #721E00",
"Y@	c #FFDDC6",
"Z@	c #E36600",
"`@	c #FFB138",
" #	c #E2CFAA",
".#	c #FFECC6",
"+#	c #392800",
"@#	c #FFD31C",
"##	c #EFDC71",
"$#	c #FFEA71",
"%#	c #FFF7C6",
"&#	c #FAFEE2",
"*#	c #D4EA71",
"=#	c #D8F855",
"-#	c #F0FCC6",
";#	c #81F01C",
">#	c #7CE155",
",#	c #552500",
"'#	c #E5C48D",
")#	c #AA7800",
"!#	c #ECD055",
"~#	c #554D00",
"{#	c #ECFB8D",
"]#	c #CFD2C6",
"^#	c #141B00",
"/#	c #98D900",
"(#	c #A1F455",
"_#	c #9AF58D",
":#	c #C6CBC6",
"<#	c #FF441C",
"[#	c #E8E3E2",
"}#	c #FF8638",
"|#	c #C75700",
"1#	c #907038",
"2#	c #724F00",
"3#	c #BCA538",
"4#	c #554C00",
"5#	c #EBEBE2",
"6#	c #A4AD71",
"7#	c #283600",
"8#	c #9CD900",
"9#	c #ADD48D",
"0#	c #0D6800",
"a#	c #063400",
"b#	c #E32B00",
"c#	c #685855",
"d#	c #1D0600",
"e#	c #AA2A00",
"f#	c #C75100",
"g#	c #552400",
"h#	c #C77F00",
"i#	c #724A00",
"j#	c #553800",
"k#	c #724D00",
"l#	c #C78800",
"m#	c #C7A700",
"n#	c #393000",
"o#	c #554B00",
"p#	c #C7B100",
"q#	c #708800",
"r#	c #688800",
"s#	c #61D400",
"t#	c #2E6A00",
"u#	c #204F00",
"v#	c #44B900",
"w#	c #AA2600",
". + @ # $ % & * = - ; > , ' ) ! ~ { ] ^ / ( _ : < [ } | 1 2 3 4 5 6 7 8 9 0 a b c d e f g h i j k l m n o p q r s t u v w x y z A B C D E F G H I J K L M N O P P P P P P P P P P P P P P P P P P Q R S T U V W X Y Z `  ...+.@.#.$.%.&.*.=.-.;.>.,.'.).!.~.{.].^./.(._.:.<.[.}.|.1.2.3.3.3.3.3.3.3.3.3.3.3.3.3.3.3.3.3.3.3.3.3.",
". + @ # $ % & * = - ; > , ' ) ! ~ { ] ^ / ( _ : < [ } | 1 2 3 4 4.5.6.8 9 0 a b c d e f g h i j 7.l m n o p q r s t u v w x y z A 8.9.0.a.b.c.d.I J K L M N O P P P P P P P P P P e.f.g.P P P P P Q R S T U V W X Y Z `  .h.i.f.j.k.%.&.*.=.-.;.>.,.'.).!.~.{.l.m.f.f.n.:.<.[.}.|.1.2.3.3.3.3.3.3.3.3.3.o.p.3.3.3.3.3.3.3.3.3.3.",
". + @ # $ q.r.f.f.s.t.> , ' ) ! ~ { ] ^ / ( _ : u.v.w.x.y.z.A.f.f.f.B.C.9 0 a b c d e f g h i D.f.E.m n o p q r s t u v w x y z F.f.f.f.f.f.f.f.G.J K L M N O P P P P P P P P P H.f.f.I.J.P P P P Q R S T U V W X Y Z K.L.f.f.f.f.M.N.&.*.=.-.;.>.,.'.).!.O.P.f.f.f.f.f.Q.<.[.}.|.1.2.3.3.3.3.3.3.3.3.3.R.S.T.3.3.3.3.3.3.3.3.3.",
". + @ # U.f.f.f.f.f.f.V., ' ) ! ~ { ] ^ / ( _ : W.f.f.f.f.f.f.f.f.f.X.Y.9 0 a b c d e f g h Z.f.f.`. +n o p q r s t u v w x y z F.f.f.f.f.f.f..+++@+K L M N O P P P P P P P P g.#+f.f.$+%+P P P P Q R S T U V W X &+*+f.f.=+$+f.f.`.-+&.*.=.-.;.>.,.'.).;+>+f.f.$+`.f.f.X.,+[.}.|.1.2.3.3.3.3.3.3.3.3.3.f.f.'+3.3.3.3.3.3.3.3.3.",
". + @ )+f.f.$+X.X..+f..+!+' ) ! ~ { ] ^ / ( _ : ~+{+X.X.X.`.]+.+f..+]+^+9 0 a b c d e f g h /+f.(+]+_+n o p q r s t u v w x y z F.f.f.]+]+]+]+]+@+:+K L M N O P P P P P P P P <+f.f.f.$+[+P P P P Q R S T U V W X }+f.|+I.]+1+f.$+]+2+&.*.=.-.;.>.,.'.).3+f.f.++]+4+5+f.`.6+[.}.|.1.2.3.3.3.3.3.3.3.3.3.f.f.]+3.3.3.3.3.3.3.3.3.",
". + @ 7+f..+]+8+9+0+f.f.a+' ) ! ~ { ] ^ / ( _ : < b+c+d+e+f+g+f.f.I.h+8 9 0 a b c d e f g i+f.f.I.j+m n o p q r s t u v w x y z F.f.f.]+E F G H I J K L M N O P P P P P P P H.f.f.f.f.$+[+P P P P Q R S T U V W X k+l+m+n+o+f.p+m+q+%.&.*.=.-.;.>.,.'.).r+s+X.]+t+u+f.v+]+,+[.}.|.1.2.3.3.3.3.3.3.3.3.3.f.f.]+3.3.3.3.3.3.3.3.3.",
". + @ 7+f.$+w+* = - f.f.X.x+) ! ~ { ] ^ / ( _ : < [ } | 1 2 y+f..+]+z+8 9 0 a b c d e f g A+f.f.m+B+m n o p q r s t u v w x y z F.f.f.]+E F G H I J K L M N O P P P P P P g.#+f.$+$+f.$+[+P P P P Q R S T U V W X Y C+D+E+f.p+m+F+G+%.&.*.=.-.;.>.,.'.).!.H+H+I+^.J+f.I.K+<.[.}.|.1.2.3.3.3.3.3.3.3.3.3.f.f.]+3.3.3.3.3.3.3.3.3.",
". + @ )+f.f.L+* = M+f.f.]+N+) ! ~ { ] ^ / ( _ : < [ } | 1 O+f.f.`.P+7 8 9 0 a b c d e f g Q+f.(+]+R+m n o p q r s t u v w x y z F.f.f.X.a.b.G H I J K L M N O P P P P P P S+f.T+m+U+f.$+[+P P P P Q R S T U V W X Y Z V+f.f..+1+W+$.%.&.*.=.-.;.>.,.'.).!.~.{.].X+f.Y+]+Z+<.[.}.|.1.2.3.3.3.3.3.3.3.3.3.f.f.]+3.3.3.3.3.3.3.3.3.",
". + @ # `+f.f. @.@f.f.++]+' ) ! ~ { ] ^ / ( _ : < [ } | 1 +@f.(+]+@@7 8 9 0 a b c d e f g f.f.++#@/+f.$@%@p q r s t u v w x y z F.f.f.f.f.f.f.&@I J K L M N O P P P P P S+f.f.m+*@=@f.$+[+P P P P Q R S T U V W X Y -@f.f.f.f.f.f.;@%.&.*.=.-.;.>.,.'.).!.~.{.].m.f.I.>@:.<.[.}.|.1.2.3.3.3.3.3.3.3.3.3.f.f.]+3.3.3.3.3.3.3.3.3.",
". + @ # $ ,@f.f.f.f.(+]+'@' ) ! ~ { ] ^ / ( _ : < [ } | )@f.f.`.!@6 7 8 9 0 a b c d e f ~@f.f..+f.f.f.f.f.{@q r s t u v w x y z F.f.f.f.f.f.f.f.]@J K L M N O P P P P e.f.f.X.]+J.S+f.$+[+P P P P Q R S T U V W X Y ^@/@$+X.X..+f.$+2+&.*.=.-.;.>.,.'.).!.~.{.(@f._@]+:@:.<.[.}.|.1.2.3.3.3.3.3.3.3.3.3.f.f.]+3.3.3.3.3.3.3.3.3.",
". + @ # $ % <@f.f.f.$+[@, ' ) ! ~ { ] ^ / ( _ : < [ } | }@f.(+]+|@6 7 8 9 0 a b c d e f ~@f.f.f.1@X.X.$+f.$+2@r s t u v w x y z A 3@X.]+]+m+(+f.f.4@K L M N O P P P P #+f.f.f.f.f.f.f.f.f.f.f.f.H.Q R S T U V W X Y Z 5@n+6@7@8@f.$+9@&.*.=.-.;.>.,.'.).!.~.0@f.f.I.>@_.:.<.[.}.|.1.2.3.3.3.3.3.3.3.3.3.f.f.]+3.3.3.3.3.3.3.3.3.",
". + @ # $ % r.f.f.f.f.a@, ' ) ! ~ { ] ^ / ( _ : < [ } b@f.f.`.!@5 6 7 8 9 0 a b c d e f ~@f.f.f.`.c@ +d@f.f.e@r s t u v w x y z A B f@g@E F h@i@f.++j@L M N O P P P P S+f.f.f.f.f.f.f.f.f.f.f..+`.k@R S T U V W X Y Z `  ...+.l@f.I.9@&.*.=.-.;.>.,.'.).!.~.P.f.(+]+m@_.:.<.[.}.|.1.2.3.3.3.3.3.3.3.3.3.f.f.]+3.3.3.3.3.3.3.3.3.",
". + @ # $ q.f.f.m+$+f.f.n@' ) ! ~ { ] ^ / ( _ : < [ } x.f..+]+o@5 6 7 8 9 0 a b c d e f ~@f.f.f.]+p@m n f.f.]+r s t u v w x y z A B C D E F G q@f.$+r@L M N O P P P P P s@X.X.]+]+$+f.$+]+]+]+]+*@k@R S T U V W X Y Z `  ...t@f.f.m+u@&.*.=.-.;.>.,.'.).!.v@f.f.`.w@(._.:.<.[.}.|.1.2.3.3.3.3.3.3.3.3.3.f.f.]+3.3.3.3.3.3.3.3.3.",
". + @ # $ x@f.$+]+y@z@f.$+N+) ! ~ { ] ^ / ( _ : < [ A@f.f.I.P+4 5 6 7 8 9 0 a b c d e f g f.f.f.]+l m n f.f.]+r s t u v w x y z A B C D E F G B@f.++C@L M N O P P P P P P D@E@E@P S+f.$+[+P P P P Q R S T U V W X Y Z `  ...F@f.++]+N.&.*.=.-.;.>.,.'.).;+>+f.(+]+G@(._.:.<.[.}.|.1.2.3.3.3.3.3.3.3.3.3.f.f.]+3.3.3.3.3.3.3.3.3.",
". + @ # $ f.f.X.H@- I@f.++J@) ! ~ { ] ^ / ( _ : < [ K@f.f.m+L@4 5 6 7 8 9 0 a b c d e f g M@f.f.X.l m N@f.(+]+r s t u v w x y z O@O@P@D E F c.f.f.`.r@L M N O P P P P P P P P P P S+f.$+[+P P P P Q R S T U V W Q@&+Z `  .R@f.=+]+S@%.&.*.=.-.;.>.,.'.).3+f.f.I.T@U@V@W@:.<.[.}.|.1.2.3.3.3.3.3.3.3.3.3.f.f.]+3.3.3.3.3.3.3.3.3.",
". + @ # $ f.f.(+9+M+f.f.`.X@) ! ~ { ] ^ / ( _ : < [ Y@f.$+]+Z@4 5 6 7 8 9 0 a b c d e f g `@f.f.f. #.#f.f.X.+#r s t u v w x y @#f.f.f.##$#%#f.f.$+]+j@L M N O P P P P P P P P P P S+f.$+[+P P P P Q R S T U V W &#f.*#=#-#f.p+m+F+$.%.&.*.=.-.;.>.,.'.;#f.f.f.f.f.f.f.f.>#<.[.}.|.1.2.3.3.3.3.3.3.3.3.3.R.f.]+3.3.3.3.3.3.3.3.3.",
". + @ # $ x@f.f.f.f.f.X.]+x+) ! ~ { ] ^ / ( _ : < [ f.f.`.,#3 4 5 6 7 8 9 0 a b c d e f g h '#f.f.f.f.f.++]+)#r s t u v w x y z !#f.f.f.f.f.f.$+]+~#K L M N O P P P P P P P P P P S+f.I.[+P P P P Q R S T U V W {#f.f.f.f.]#m+^#/#$.%.&.*.=.-.;.>.,.'.(#f.f.f.f.f.f.f.f.X.6+[.}.|.1.2.3.3.3.3.3.3.3.3.3._#:#]+3.3.3.3.3.3.3.3.3.",
". + @ # $ <#[#f.f..+X.]+!+' ) ! ~ { ] ^ / ( _ : < }#f.$+]+|#3 4 5 6 7 8 9 0 a b c d e f g h i 1#++$+++`.]+2#q r s t u v w x y z A 3#(+f.f.$+`.]+4#J K L M N O P P P P P P P P P P H.5#m+%+P P P P Q R S T U V W X 6#.+.+I.]+7#8##.$.%.&.*.=.-.;.>.,.'.;#9#$+X.`.]+]+]+]+]+6+[.}.|.1.2.3.3.3.3.3.3.3.3.3.3.0#a#3.3.3.3.3.3.3.3.3.",
". + @ # $ % b#c#X.]+d#e#, ' ) ! ~ { ] ^ / ( _ : < [ f#]+g#2 3 4 5 6 7 8 9 0 a b c d e f g h i j h#i#j#k#l#p q r s t u v w x y z A B m#n#]+]+o#p#I J K L M N O P P P P P P P P P P P D@*@J.P P P P Q R S T U V W X Y q#5@n+r#+.@.#.$.%.&.*.=.-.;.>.,.'.).s#t#u#I+v#/.(._.:.<.[.}.|.1.2.3.3.3.3.3.3.3.3.3.3.3.3.3.3.3.3.3.3.3.3.3.",
". + @ # $ % & * 9+w#; > , ' ) ! ~ { ] ^ / ( _ : < [ } | 1 2 3 4 5 6 7 8 9 0 a b c d e f g h i j k l m n o p q r s t u v w x y z A B C D E F G H I J K L M N O P P P P P P P P P P P P P P P P P P Q R S T U V W X Y Z `  ...+.@.#.$.%.&.*.=.-.;.>.,.'.).!.~.{.].^./.(._.:.<.[.}.|.1.2.3.3.3.3.3.3.3.3.3.3.3.3.3.3.3.3.3.3.3.3.3."};
