/* XPM */
static char * id_xpm[] = {
"20 20 22 1",
" 	c None",
".	c #BDBEBD",
"+	c #FFFFFF",
"@	c #000000",
"#	c #5A5D5A",
"$	c #161716",
"%	c #545454",
"&	c #464646",
"*	c #7A7A7A",
"=	c #FFB200",
"-	c #BABBBA",
";	c #BBBCBB",
">	c #6BB9FF",
",	c #0B0B0B",
"'	c #F2B422",
")	c #FBB20B",
"!	c #C4BCA7",
"~	c #F6B316",
"{	c #C2BDAE",
"]	c #C0BDB3",
"^	c #BDBDBB",
"/	c #BDBDBA",
"....................",
".++++++++++++++++++@",
".+................#@",
".+......@@$%%%....#@",
".+.@..@@@@@@@@@&..#@",
".+.@@@@@@@@@@@@@*.#@",
".+.@@@@@@@@@@@@@@.#@",
".+..@========@@@@-#@",
".+.@@@@@@@@@==@@@;#@",
".+.@>>>@>>>@==@@@;#@",
".+.@>>>@>>>@@@@@@@#@",
".+.,>>>@>>>@=====@#@",
".+..@@@=@@@====='@#@",
".+..@=========)@@.#@",
".+...@=@@@====@!..#@",
".+....@=====~@{]..#@",
".+....@====@@^/...#@",
".+.....@@@@.......#@",
".+#################@",
".@@@@@@@@@@@@@@@@@@@"};
