/* XPM */
static char * pbutton_xpm[] = {
"20 20 5 1",
" 	c None",
".	c #606060",
"+	c #2B2B2B",
"@	c #FFFFFF",
"#	c #B5B1B5",
"....................",
".++++++++++++++++++@",
".+................#@",
".+................#@",
".+................#@",
".+................#@",
".+................#@",
".+................#@",
".+................#@",
".+................#@",
".+................#@",
".+................#@",
".+................#@",
".+................#@",
".+................#@",
".+................#@",
".+................#@",
".+................#@",
".+#################@",
".@@@@@@@@@@@@@@@@@@@"};
