/* XPM */
static char * qbutton_xpm[] = {
"20 20 63 1",
" 	c None",
".	c #BDBEBD",
"+	c #FFFFFF",
"@	c #000000",
"#	c #5A5D5A",
"$	c #D46969",
"%	c #C12A2A",
"&	c #C30000",
"*	c #BE0000",
"=	c #812A2A",
"-	c #ACA9A8",
";	c #E93F3F",
">	c #FF0000",
",	c #A41515",
"'	c #9B3534",
")	c #C81E1E",
"!	c #210D0D",
"~	c #8A8887",
"{	c #B5B6B5",
"]	c #FE0000",
"^	c #693F3F",
"/	c #887F7F",
"(	c #8A7878",
"_	c #828080",
":	c #CC3F3F",
"<	c #340000",
"[	c #745050",
"}	c #808080",
"|	c #713F3F",
"1	c #8F8F8F",
"2	c #7F7878",
"3	c #908F8F",
"4	c #F02A2A",
"5	c #320000",
"6	c #896564",
"7	c #7B7878",
"8	c #A6A6A6",
"9	c #BEA9A8",
"0	c #797878",
"a	c #151515",
"b	c #9B8887",
"c	c #7A7878",
"d	c #401515",
"e	c #817F7F",
"f	c #937878",
"g	c #7D7878",
"h	c #CB9493",
"i	c #3A1515",
"j	c #787878",
"k	c #D37E7E",
"l	c #616160",
"m	c #7C7878",
"n	c #BD3F3F",
"o	c #989393",
"p	c #9E9F9E",
"q	c #AEAFAE",
"r	c #F71515",
"s	c #543F3F",
"t	c #868080",
"u	c #D36969",
"v	c #938887",
"w	c #917878",
"x	c #A69F9E",
"....................",
".++++++++++++++++++@",
".+................#@",
".+.....$%&*=-.....#@",
".+....;>,')>!~{...#@",
".+...;]^/(_:<[}...#@",
".+...>|123{45678..#@",
".+...9.03.;>abc8..#@",
".+.....{.;>def}...#@",
".+......;>deg_{...#@",
".+.....h>iej}{....#@",
".+.....k>lm}{.....#@",
".+.....hnocp......#@",
".+.......q1{......#@",
".+......rs........#@",
".+.....h>@t3......#@",
".+......uvwj......#@",
".+........xq......#@",
".+#################@",
".@@@@@@@@@@@@@@@@@@@"};
