/* XPM */
static char * rbuttonb_xpm[] = {
"20 20 244 2",
"  	c None",
". 	c #FE2800",
"+ 	c #FD0900",
"@ 	c #FE0000",
"# 	c #FF0000",
"$ 	c #FD2200",
"% 	c #FD5200",
"& 	c #FD5800",
"* 	c #FD3200",
"= 	c #FE0E00",
"- 	c #FE0700",
"; 	c #FE0600",
"> 	c #FE0500",
", 	c #FD3900",
"' 	c #FD3D00",
") 	c #FD2600",
"! 	c #FD0C00",
"~ 	c #FD0E00",
"{ 	c #FD4F00",
"] 	c #FD5E00",
"^ 	c #FD4600",
"/ 	c #FD1600",
"( 	c #FE0B00",
"_ 	c #FE1400",
": 	c #FE1100",
"< 	c #FE0900",
"[ 	c #FD2D00",
"} 	c #FD4000",
"| 	c #FD4800",
"1 	c #FD3700",
"2 	c #FD1300",
"3 	c #FD0000",
"4 	c #FD5A00",
"5 	c #FD5000",
"6 	c #FD2100",
"7 	c #FE0300",
"8 	c #FE2000",
"9 	c #FE2700",
"0 	c #FE1E00",
"a 	c #FE0A00",
"b 	c #FD0F00",
"c 	c #FD3100",
"d 	c #FD4B00",
"e 	c #FD5100",
"f 	c #FD3A00",
"g 	c #FD5700",
"h 	c #FD5C00",
"i 	c #FD3500",
"j 	c #FD1500",
"k 	c #FE4100",
"l 	c #FE3000",
"m 	c #FE0100",
"n 	c #FD3600",
"o 	c #FD6800",
"p 	c #FD6500",
"q 	c #FD4400",
"r 	c #FD6A00",
"s 	c #FD7F00",
"t 	c #FD6C00",
"u 	c #FD6B01",
"v 	c #FD6302",
"w 	c #FE4500",
"x 	c #FD0800",
"y 	c #FD0A00",
"z 	c #FD3000",
"A 	c #FD801A",
"B 	c #FDB01B",
"C 	c #FD8E00",
"D 	c #FD9800",
"E 	c #FDAE00",
"F 	c #FDB100",
"G 	c #FDA608",
"H 	c #FD9F06",
"I 	c #FD8A04",
"J 	c #FD6D00",
"K 	c #FD4700",
"L 	c #FD1E00",
"M 	c #FD1400",
"N 	c #FD1700",
"O 	c #FD590D",
"P 	c #FDAD2C",
"Q 	c #FDC528",
"R 	c #FDC403",
"S 	c #FAC900",
"T 	c #FCC700",
"U 	c #FCC100",
"V 	c #FCBB00",
"W 	c #FAAA00",
"X 	c #FD9C00",
"Y 	c #FD6204",
"Z 	c #FD4C00",
"` 	c #FD2A00",
" .	c #FD2800",
"..	c #FD1B00",
"+.	c #FD0D00",
"@.	c #FE4400",
"#.	c #FD9C0F",
"$.	c #FDD12A",
"%.	c #FDDA10",
"&.	c #FDDC00",
"*.	c #FCD809",
"=.	c #FCD20C",
"-.	c #FDCD01",
";.	c #FDC800",
">.	c #FDC201",
",.	c #FD9A0B",
"'.	c #FD7000",
").	c #FD3B00",
"!.	c #FD2B00",
"~.	c #FD0300",
"{.	c #FE2C00",
"].	c #FD3400",
"^.	c #FD3300",
"/.	c #FD6400",
"(.	c #FDAF0A",
"_.	c #FDD005",
":.	c #FDDA0C",
"<.	c #FDDD0D",
"[.	c #FCDC09",
"}.	c #FCDC0A",
"|.	c #FDD710",
"1.	c #FCD503",
"2.	c #FDD100",
"3.	c #FDC200",
"4.	c #FE3400",
"5.	c #FD4E00",
"6.	c #FD5B00",
"7.	c #FD6900",
"8.	c #FD8A00",
"9.	c #FDB600",
"0.	c #FACB03",
"a.	c #FDDA18",
"b.	c #FDDD0C",
"c.	c #FADD03",
"d.	c #FCDD01",
"e.	c #FCDC03",
"f.	c #FDDB06",
"g.	c #FBD300",
"h.	c #FCCA00",
"i.	c #FDA400",
"j.	c #FD6B00",
"k.	c #FE2400",
"l.	c #FE3E00",
"m.	c #FD6100",
"n.	c #FDBB00",
"o.	c #FBCC04",
"p.	c #FCD919",
"q.	c #FCDD0B",
"r.	c #FBDA00",
"s.	c #FBDD00",
"t.	c #FDDD03",
"u.	c #FDDD06",
"v.	c #FDD90E",
"w.	c #FDB511",
"x.	c #FD7E00",
"y.	c #FD7100",
"z.	c #FD6300",
"A.	c #FD4D00",
"B.	c #FE0C00",
"C.	c #FE1B00",
"D.	c #FD2500",
"E.	c #FD2C00",
"F.	c #FDAE0A",
"G.	c #FCCD02",
"H.	c #FCDC23",
"I.	c #FDDD16",
"J.	c #FCDD00",
"K.	c #FBDD03",
"L.	c #FCDD05",
"M.	c #FDDD0E",
"N.	c #FDDA02",
"O.	c #FDCF09",
"P.	c #FD9F0A",
"Q.	c #FD5F00",
"R.	c #FD4300",
"S.	c #FE0800",
"T.	c #FD4303",
"U.	c #FD9A23",
"V.	c #FDC311",
"W.	c #FCD10B",
"X.	c #FDDA16",
"Y.	c #FCD903",
"Z.	c #FDDD09",
"`.	c #FDDD00",
" +	c #FDD800",
".+	c #FDC300",
"++	c #FD6000",
"@+	c #FE0400",
"#+	c #FE0F00",
"$+	c #FD500E",
"%+	c #FD8E1D",
"&+	c #FDB006",
"*+	c #FCBC02",
"=+	c #FDCB03",
"-+	c #FACF00",
";+	c #FBCF00",
">+	c #FDD300",
",+	c #FDD000",
"'+	c #FDCE00",
")+	c #FDB200",
"!+	c #FD1100",
"~+	c #FD5803",
"{+	c #FD7E03",
"]+	c #FD7C05",
"^+	c #FD9C0A",
"/+	c #FDAF00",
"(+	c #FDC207",
"_+	c #FDC202",
":+	c #FDB812",
"<+	c #FDA500",
"[+	c #FDAB00",
"}+	c #FD7C00",
"|+	c #FD1C00",
"1+	c #FE1200",
"2+	c #FD1900",
"3+	c #FD1F00",
"4+	c #FD2300",
"5+	c #FD3800",
"6+	c #FD6700",
"7+	c #FD8700",
"8+	c #FD9D07",
"9+	c #FD9C04",
"0+	c #FD8F00",
"a+	c #FD7806",
"b+	c #FD5D00",
"c+	c #FD5900",
"d+	c #FD2400",
"e+	c #FD0500",
"f+	c #FE1600",
"g+	c #FE1300",
"h+	c #FD0600",
"i+	c #FD5300",
"j+	c #FD4500",
"k+	c #FD0400",
"l+	c #FE0200",
"m+	c #FE1900",
"n+	c #FE2B00",
"o+	c #FE3100",
"p+	c #FD1D00",
"q+	c #FD0200",
"r+	c #FE1700",
"s+	c #FE1A00",
"t+	c #FD0100",
"u+	c #FD4A00",
". . + @ # $ % & * = # @ - ; > @ @ # # # ",
", ' ) ! @ ~ { ] ^ / @ ( _ : < @ @ # # # ",
"[ } | 1 2 3 , 4 5 6 7 8 9 0 a @ # # # # ",
"b c d e f 2 ) g h i j ' k l ( @ @ @ @ m ",
"@ b n e o p q r s t & u v w 8 a @ m x y ",
"# @ y z A B C D E F G H I J K L + M N ~ ",
"# # @ y O P Q R S T U V W X Y Z `  ...+.",
"# # # # @.#.$.%.&.*.=.-.;.>.,.'.).!.M ~.",
"{.].^., /.(._.:.<.[.}.|.1.2.3.C ' 6 ~ + ",
"4.5.6.7.8.9.0.a.b.c.d.e.f.g.h.i.j.6.| ^.",
"k.l.% m.8.n.o.p.q.r.s.t.u.&.v.w.x.y.z.A.",
"B.C.D.E.] F.G.H.I.J.K.L.M.N.O.P.Q.& { R.",
"# # @ S.T.U.V.W.X.Y.t.Z.`. +.+++@ @ @ ~.",
"@ @+#+L $+%+&+*+=+-+;+>+,+'+)+'.N 3 # # ",
"- !+.. .~+{+]+^+/+(+R _+:+<+[+}+| |+3 # ",
"1+2+3+4+z 5+5+6+7+8+9+0+a+^ b+t c+5 d+e+",
": f+g+M b ; M K z.6.6.6.K ~.h+d+{ & i+D.",
"< a - 7 @ @ |+} d , , d j++.# k+D.5.& 5 ",
"@ l+@ @ # m m+n+o+p+|+i 5+N # # q+p+K 4 ",
"@ @ # # # @+= r+C.= a 8 9 s+# # # t+..u+"};
