/* XPM */
static char * rbuttona_xpm[] = {
"20 20 292 2",
"  	c None",
". 	c #FF7200",
"+ 	c #FF3900",
"@ 	c #FF0600",
"# 	c #FF1000",
"$ 	c #FF0800",
"% 	c #FF6600",
"& 	c #FFA900",
"* 	c #FF5F00",
"= 	c #FF0000",
"- 	c #FF0200",
"; 	c #FF1B00",
"> 	c #FF5B00",
", 	c #FF7C00",
"' 	c #FF8D00",
") 	c #FF9100",
"! 	c #FF7000",
"~ 	c #FF1C00",
"{ 	c #FF1500",
"] 	c #FF0A00",
"^ 	c #FF3600",
"/ 	c #FF9900",
"( 	c #FFA100",
"_ 	c #FF6900",
": 	c #FF0100",
"< 	c #FF1700",
"[ 	c #FF5700",
"} 	c #FF7D00",
"| 	c #FF8100",
"1 	c #FF7300",
"2 	c #FF9600",
"3 	c #FF9000",
"4 	c #FF4E00",
"5 	c #FF0F00",
"6 	c #FF0500",
"7 	c #FF1300",
"8 	c #FF7E00",
"9 	c #FF9700",
"0 	c #FF7100",
"a 	c #FF5000",
"b 	c #FF5E00",
"c 	c #FF1900",
"d 	c #FF8600",
"e 	c #FF5B03",
"f 	c #FF4200",
"g 	c #FF4500",
"h 	c #FEA800",
"i 	c #FEB700",
"j 	c #FEA900",
"k 	c #FF9212",
"l 	c #FF8A15",
"m 	c #FF6E2C",
"n 	c #FF6925",
"o 	c #FF7B04",
"p 	c #FEA700",
"q 	c #FEAD00",
"r 	c #FF4700",
"s 	c #FF8F00",
"t 	c #FFA70A",
"u 	c #FEAD24",
"v 	c #FF8B15",
"w 	c #FF9B00",
"x 	c #FEBE00",
"y 	c #FED000",
"z 	c #FED300",
"A 	c #FFDA3A",
"B 	c #FFDB43",
"C 	c #FFB418",
"D 	c #FF9E12",
"E 	c #FFAD01",
"F 	c #FEB000",
"G 	c #FE8F00",
"H 	c #FF5400",
"I 	c #FF0C00",
"J 	c #FFA809",
"K 	c #FFBC1C",
"L 	c #FFBA29",
"M 	c #FFB822",
"N 	c #FFBD00",
"O 	c #FBC600",
"P 	c #FCCF00",
"Q 	c #FDD100",
"R 	c #FDCE08",
"S 	c #FCD009",
"T 	c #FCD101",
"U 	c #FDC800",
"V 	c #FEC500",
"W 	c #FE6D00",
"X 	c #FF6200",
"Y 	c #FF1A00",
"Z 	c #FF9C00",
"` 	c #FFB701",
" .	c #FFD834",
"..	c #FFDC44",
"+.	c #FFDC4A",
"@.	c #FDDE07",
"#.	c #FDDE10",
"$.	c #FDDD1E",
"%.	c #FDE120",
"&.	c #FEE10C",
"*.	c #FEE001",
"=.	c #FEE000",
"-.	c #FEDE15",
";.	c #FEBA2F",
">.	c #FE6A2C",
",.	c #FF5A00",
"'.	c #FF7B00",
").	c #FFB61C",
"!.	c #FFCD1D",
"~.	c #FFE126",
"{.	c #FFE22D",
"].	c #FEE004",
"^.	c #FDEA2E",
"/.	c #FDF17B",
"(.	c #FDF47B",
"_.	c #FEF35F",
":.	c #FEE614",
"<.	c #FEE300",
"[.	c #FEDC00",
"}.	c #FE8800",
"|.	c #FF6F00",
"1.	c #FF6700",
"2.	c #FFC013",
"3.	c #FFD813",
"4.	c #FFDF0E",
"5.	c #FEE845",
"6.	c #FDEA55",
"7.	c #FDF068",
"8.	c #FDF58D",
"9.	c #FEF397",
"0.	c #FEF291",
"a.	c #FDE123",
"b.	c #FEE609",
"c.	c #FEE700",
"d.	c #FEC700",
"e.	c #FF6C00",
"f.	c #FF8700",
"g.	c #FFC300",
"h.	c #FFCB00",
"i.	c #FEE736",
"j.	c #FEED5B",
"k.	c #FEEE62",
"l.	c #FDE77A",
"m.	c #FBE984",
"n.	c #FEF2A5",
"o.	c #FEF3AC",
"p.	c #FDE68B",
"q.	c #FEE65A",
"r.	c #FEE106",
"s.	c #FECB00",
"t.	c #FEC400",
"u.	c #FF2F00",
"v.	c #FF2900",
"w.	c #FF9800",
"x.	c #FFA800",
"y.	c #FFCD00",
"z.	c #FDE426",
"A.	c #FDE644",
"B.	c #FDE752",
"C.	c #FBDD50",
"D.	c #FEEF81",
"E.	c #FEF18E",
"F.	c #FEEF8C",
"G.	c #FEEA66",
"H.	c #FEE411",
"I.	c #FEDB0D",
"J.	c #FED40B",
"K.	c #FFB508",
"L.	c #FF7A00",
"M.	c #FF8900",
"N.	c #FF8B00",
"O.	c #FFAB00",
"P.	c #FFDA00",
"Q.	c #FEDA00",
"R.	c #FDE52A",
"S.	c #FDE860",
"T.	c #FDE966",
"U.	c #FDE857",
"V.	c #FCDF46",
"W.	c #FCDF4D",
"X.	c #FEEE99",
"Y.	c #FDE94C",
"Z.	c #FDE614",
"`.	c #FEE144",
" +	c #FEDD37",
".+	c #FFCA2B",
"++	c #FF7B0B",
"@+	c #FFC520",
"#+	c #FED51F",
"$+	c #FDE22B",
"%+	c #FDF166",
"&+	c #FEF280",
"*+	c #FEF082",
"=+	c #FDF3A2",
"-+	c #FCF2A1",
";+	c #FDE687",
">+	c #FEEB50",
",+	c #FEEB4E",
"'+	c #FEE10A",
")+	c #FEBF00",
"!+	c #FF6300",
"~+	c #FF600D",
"{+	c #FEB93F",
"]+	c #FED73C",
"^+	c #FEDC1C",
"/+	c #FDE625",
"(+	c #FEF265",
"_+	c #FEF266",
":+	c #FEF151",
"<+	c #FEF152",
"[+	c #FEED40",
"}+	c #FEEA3E",
"|+	c #FEE100",
"1+	c #FED200",
"2+	c #FF1D00",
"3+	c #FF440C",
"4+	c #FF934A",
"5+	c #FFD642",
"6+	c #FEDA15",
"7+	c #FCD812",
"8+	c #FDE330",
"9+	c #FDE435",
"0+	c #FAE12A",
"a+	c #FDE12C",
"b+	c #FEE108",
"c+	c #FED500",
"d+	c #FEC800",
"e+	c #FE9900",
"f+	c #FF5D00",
"g+	c #FF0300",
"h+	c #FF5925",
"i+	c #FF8D27",
"j+	c #FFBC0B",
"k+	c #FECB06",
"l+	c #FECF08",
"m+	c #FEDD09",
"n+	c #FDDD08",
"o+	c #FDD608",
"p+	c #FEDD00",
"q+	c #FFD300",
"r+	c #FFC200",
"s+	c #FE9500",
"t+	c #FF7900",
"u+	c #FF4A00",
"v+	c #FF2800",
"w+	c #FF8500",
"x+	c #FFA600",
"y+	c #FFB020",
"z+	c #FFAF2F",
"A+	c #FEA707",
"B+	c #FEDA2D",
"C+	c #FEDE2A",
"D+	c #FFDE30",
"E+	c #FFCF13",
"F+	c #FFD614",
"G+	c #FFCF0D",
"H+	c #FFA200",
"I+	c #FE7A00",
"J+	c #FE7300",
"K+	c #FF8000",
"L+	c #FF7500",
"M+	c #FF6A00",
"N+	c #FF2C00",
"O+	c #FF6000",
"P+	c #FF6C08",
"Q+	c #FF5C0D",
"R+	c #FE6B00",
"S+	c #FEBD21",
"T+	c #FEC81B",
"U+	c #FFC224",
"V+	c #FF8C0A",
"W+	c #FF9910",
"X+	c #FFB006",
"Y+	c #FE6000",
"Z+	c #FE4200",
"`+	c #FF4D00",
" @	c #FF6500",
".@	c #FF7400",
"+@	c #FF4F00",
"@@	c #FF0E00",
"#@	c #FF9300",
"$@	c #FF0900",
"%@	c #FF3700",
"&@	c #FF2B00",
"*@	c #FF6E00",
"=@	c #FF4600",
"-@	c #FF0700",
";@	c #FF1100",
">@	c #FF9400",
",@	c #FF6D00",
"'@	c #FF5100",
")@	c #FF2200",
". + @ # # $ % & & * = = = = = - ; > , ' ",
") ! ~ { { ] ^ / ( _ = = = = : < [ } | 1 ",
"2 3 4 { 5 6 7 8 9 0 $ = = = < a } } b c ",
"8 2 d e f g ! h i j k l m n o p q ' ; = ",
"r s t u v d w x y z A B C D E F G H - = ",
"I * J K L M N O P Q R S T U V q W X = = ",
"= Y Z `  ...+.@.#.$.%.&.*.=.-.;.>.,.= = ",
"= = '.).!.~.{.].^./.(._.:.<.<.[.}.|.= = ",
": = 1.2.3.4.5.6.7.8.8.9.0.a.b.c.d.d = = ",
"0 e.f.g.h.i.j.k.l.m.n.o.p.q.r.s.t.3 u.v.",
"w.Z x.y.y z.A.B.B.C.D.E.F.G.H.I.J.K.L.|.",
"M.N.O.P.Q.R.S.T.U.V.W.X.X.Y.Z.`. +.+s f.",
"c ~ ++@+#+$+%+&+*+=+-+;+>+,+'+y )+w !+!+",
"= = ~+{+]+^+/+(+_+:+<+[+}+|+=.1+j * < 2+",
"= = 3+4+5+6+7+8+9+0+a+b+|+[.c+d+e+f+] = ",
"= g+h+i+j+k+l+1+m+n+o+[.p+q+r+q s+t+u+v+",
"6 v.w+Z x+y+z+A+B+C+D+E+F+G+H+I+J+K+L+M+",
"N+O+s 3 t+P+Q+R+S+T+U+V+W+X+2 Y+Z+`+ @L.",
"f+.@1 +@v.I = @@'.#@|.6 $@4 w+!+%@~ &@,.",
"*@|.=@Y -@= = ;@K+>@,@: = ~ !+d '@v+I )@"};
