/* XPM */
static char * rbutton_xpm[] = {
"20 20 318 2",
"  	c None",
". 	c #FF8F00",
"+ 	c #FF6300",
"@ 	c #FF1E00",
"# 	c #FF3200",
"$ 	c #FF3C00",
"% 	c #FF5400",
"& 	c #FF6500",
"* 	c #FF7500",
"= 	c #FF7900",
"- 	c #FF7F00",
"; 	c #FF7D00",
"> 	c #FF9A00",
", 	c #FF8B00",
"' 	c #FF7436",
") 	c #FF7039",
"! 	c #FF4200",
"~ 	c #FF3F00",
"{ 	c #FFAA00",
"] 	c #FF4900",
"^ 	c #FFA17F",
"/ 	c #FFBA00",
"( 	c #FF8700",
"_ 	c #FF4F00",
": 	c #FF6D00",
"< 	c #FF8C00",
"[ 	c #FFE700",
"} 	c #FF9900",
"| 	c #FF9800",
"1 	c #FFF18A",
"2 	c #FF9727",
"3 	c #FF8736",
"4 	c #FF9035",
"5 	c #FF5C00",
"6 	c #FF7C00",
"7 	c #FFA700",
"8 	c #FF4D00",
"9 	c #FF3400",
"0 	c #FFA594",
"a 	c #FFB3A6",
"b 	c #FFAF1C",
"c 	c #FFA200",
"d 	c #FFA500",
"e 	c #FFCA00",
"f 	c #FFD900",
"g 	c #FFB900",
"h 	c #FFE829",
"i 	c #FFF10C",
"j 	c #FF9400",
"k 	c #FFAD00",
"l 	c #FFDB00",
"m 	c #FF7B00",
"n 	c #FF4500",
"o 	c #FF5600",
"p 	c #FF915A",
"q 	c #FFC699",
"r 	c #FFBF5D",
"s 	c #FFAE00",
"t 	c #FFC000",
"u 	c #F69F00",
"v 	c #FABF00",
"w 	c #FBC400",
"x 	c #FDD600",
"y 	c #FDD300",
"z 	c #F9B805",
"A 	c #FEDB00",
"B 	c #F7A700",
"C 	c #F59D00",
"D 	c #FFDC00",
"E 	c #FFC900",
"F 	c #FF7000",
"G 	c #FF5E00",
"H 	c #FF9500",
"I 	c #FF9F00",
"J 	c #FF9E1E",
"K 	c #FFEAC6",
"L 	c #FFDB98",
"M 	c #FFD000",
"N 	c #FCCE00",
"O 	c #FEE316",
"P 	c #FDD507",
"Q 	c #FEE31C",
"R 	c #FCD00A",
"S 	c #FEE20A",
"T 	c #FEDF00",
"U 	c #FEE101",
"V 	c #FDD900",
"W 	c #FFE000",
"X 	c #FFD600",
"Y 	c #FFA3A3",
"Z 	c #FF7300",
"` 	c #FF7A00",
" .	c #FF9700",
"..	c #FFB700",
"+.	c #FFD500",
"@.	c #FFE77E",
"#.	c #FFE10A",
"$.	c #FFE100",
"%.	c #FEE102",
"&.	c #FEE51A",
"*.	c #FEEE61",
"=.	c #FDE944",
"-.	c #FEF108",
";.	c #FEE20E",
">.	c #FFEA00",
",.	c #FFF200",
"'.	c #FFB600",
").	c #FF6A00",
"!.	c #FF8E00",
"~.	c #FF7E00",
"{.	c #FF992F",
"].	c #FFB687",
"^.	c #FDD803",
"/.	c #FDE409",
"(.	c #FEE901",
"_.	c #FEFAC5",
":.	c #FEF783",
"<.	c #FEFBC2",
"[.	c #FFF02F",
"}.	c #FDE406",
"|.	c #FAC200",
"1.	c #FFEB00",
"2.	c #FFEF00",
"3.	c #FFCD00",
"4.	c #FFBC00",
"5.	c #FFA600",
"6.	c #FFE400",
"7.	c #FFDE00",
"8.	c #FEED58",
"9.	c #FEEF64",
"0.	c #FDEE73",
"a.	c #FEEF6C",
"b.	c #FEF7A6",
"c.	c #FDF267",
"d.	c #FEF07B",
"e.	c #FEFBE4",
"f.	c #FEEC62",
"g.	c #FEE103",
"h.	c #FBCB11",
"i.	c #FEEB01",
"j.	c #FFDD00",
"k.	c #FFA100",
"l.	c #FF6100",
"m.	c #FF9000",
"n.	c #FFCE00",
"o.	c #F9BB00",
"p.	c #FEE954",
"q.	c #FFF42F",
"r.	c #FEF4A8",
"s.	c #FDE55E",
"t.	c #FDF1B8",
"u.	c #FBE481",
"v.	c #FDF194",
"w.	c #FEF19A",
"x.	c #FAD469",
"y.	c #FDEDCD",
"z.	c #FEE30A",
"A.	c #F5A105",
"B.	c #FF9C00",
"C.	c #FFC800",
"D.	c #F9B300",
"E.	c #FEEE57",
"F.	c #FCE34A",
"G.	c #FEF3AC",
"H.	c #FDE668",
"I.	c #FAC12F",
"J.	c #F9D867",
"K.	c #FFFFFF",
"L.	c #FFFAE0",
"M.	c #FEF6CA",
"N.	c #FFE73B",
"O.	c #FFE62F",
"P.	c #FCCC05",
"Q.	c #FFDF00",
"R.	c #FF9200",
"S.	c #F9B800",
"T.	c #FDEB3D",
"U.	c #FDDD38",
"V.	c #FEE85F",
"W.	c #FEEB5F",
"X.	c #FDDE1F",
"Y.	c #FABE06",
"Z.	c #FEE31A",
"`.	c #FFE83F",
" +	c #FEEB62",
".+	c #FEF3A3",
"++	c #FDE98F",
"@+	c #FFF326",
"#+	c #FFBC3D",
"$+	c #FFA23F",
"%+	c #FEE100",
"&+	c #FBCA00",
"*+	c #FDE831",
"=+	c #FDF293",
"-+	c #FEED96",
";+	c #FEE968",
">+	c #FDDA1F",
",+	c #FCD003",
"'+	c #FEF8D0",
")+	c #F9C100",
"!+	c #FEF3C2",
"~+	c #FEE555",
"{+	c #FDD710",
"]+	c #FEF011",
"^+	c #FCD205",
"/+	c #FEEC7F",
"(+	c #FFE8BF",
"_+	c #FFDFBF",
":+	c #FF8600",
"<+	c #FFB333",
"[+	c #FED400",
"}+	c #FED700",
"|+	c #FDE223",
"1+	c #FEF460",
"2+	c #FFEF7C",
"3+	c #FEDB04",
"4+	c #FBF1B4",
"5+	c #FEFCF1",
"6+	c #F7DC82",
"7+	c #FDD904",
"8+	c #FEF18F",
"9+	c #FEEF4B",
"0+	c #FEE203",
"a+	c #FCCE01",
"b+	c #FED000",
"c+	c #FFB08A",
"d+	c #FED900",
"e+	c #FED200",
"f+	c #FDDC1F",
"g+	c #FEEE5F",
"h+	c #FEF21F",
"i+	c #FEFAB9",
"j+	c #FEED33",
"k+	c #FEF230",
"l+	c #FFF556",
"m+	c #FEF35A",
"n+	c #FEFAC0",
"o+	c #FEE502",
"p+	c #FEE000",
"q+	c #FCC000",
"r+	c #FECE00",
"s+	c #FFA80C",
"t+	c #FFCD77",
"u+	c #FEE13D",
"v+	c #FED600",
"w+	c #FEDD00",
"x+	c #FEEA3F",
"y+	c #FFF662",
"z+	c #FEF219",
"A+	c #FFFBBF",
"B+	c #FEF34B",
"C+	c #FEF00D",
"D+	c #FEF10E",
"E+	c #FDE806",
"F+	c #FF9300",
"G+	c #FF6700",
"H+	c #FF8F79",
"I+	c #FFAB62",
"J+	c #FFE300",
"K+	c #FDD400",
"L+	c #FBB900",
"M+	c #FEE63F",
"N+	c #FDE343",
"O+	c #F9D618",
"P+	c #F7D925",
"Q+	c #FAE225",
"R+	c #FEE002",
"S+	c #FEDA00",
"T+	c #FEDC00",
"U+	c #FF9B00",
"V+	c #FF7700",
"W+	c #FFAF98",
"X+	c #FF8549",
"Y+	c #FF9D00",
"Z+	c #FFD400",
"`+	c #FDC800",
" @	c #FDCD00",
".@	c #FCCF00",
"+@	c #FBC600",
"@@	c #FCC300",
"#@	c #FFCC00",
"$@	c #FF9100",
"%@	c #FF5A00",
"&@	c #FFAF54",
"*@	c #FFAA17",
"=@	c #FFB000",
"-@	c #FFB400",
";@	c #FFEF29",
">@	c #FFEA87",
",@	c #FFB500",
"'@	c #FF6600",
")@	c #FF3000",
"!@	c #FF8900",
"~@	c #FF5500",
"{@	c #FF5700",
"]@	c #FFA05F",
"^@	c #FF7E1F",
"/@	c #FF7800",
"(@	c #FFB93B",
"_@	c #FFE8A3",
":@	c #FFC700",
"<@	c #FFE4E4",
"[@	c #FF9E00",
"}@	c #FF8100",
"|@	c #FF6800",
"1@	c #FFB200",
"2@	c #FF5300",
"3@	c #FF2600",
"4@	c #FF3A00",
"5@	c #FF4800",
"6@	c #FF5200",
"7@	c #FF9D2F",
"8@	c #FFD08B",
"9@	c #FF7600",
"0@	c #FF8000",
"a@	c #FF4C00",
"b@	c #FF3600",
"c@	c #FF4B00",
". + @ # $ % & * = - ; > , ' ) ! ~ & { ] ",
"^ / ( ! _ : < { [ } | 1 2 3 4 5 6 7 8 9 ",
"0 a b c ; - d e f g / h i j k c l m n o ",
"! p q r s t u v w x y z A B C D E F G H ",
"I = J K L M N O P Q R S T U V W X Y Z ` ",
"-  ...+.@.#.$.%.&.*.=.-.;.$.$.>.,.'.).!.",
"~.{.].E $.$.^./.(._.:.<.[.}.|.1.2.3.4.5.",
"* k 6.7.A 8.9.0.a.b.c.d.e.f.g.h.i.j.,.k.",
"l.m.n.o.p.q.r.s.t.u.v.w.x.y.U z.A.7.'. .",
"B.- C.D.E.F.G.H.I.J.K.L.M.N.O.6.P.Q.s < ",
"R.| n.S.T.U.V.W.X.Y.Z.`. +.+++>.$.@+#+$+",
"I j.%+&+*+=+-+;+>+,+'+)+!+~+{+]+^+/+(+_+",
":+<+[+}+|+1+b.2+3+4+5+6+7+8+9+0+a+b+d ; ",
"l.c+d+e+f+g+h+i+j+k+l+m+n+o+6.p+q+r+k.* ",
":+s+t+u+v+w+x+y+z+A+B+C+D+E+p+p+}+,.F+G+",
"G+H+I+J+K+L+M+N+O+P+Q+R+p+$.S+T+E U+V+% ",
"W+X+Y+Z+g `+ @T+A .@+@x $.@@#@,.Z+$@G ! ",
"%@d k.F &@*@=@-@;@>@W $.W ,.,@U+H ,.'@)@",
",.!@~@{@]@^@/@!@(@_@:@,@I <@[@}@'@|@1@2@",
"3@)@4@! 5@6@G F 7@8@, }@9@9@0@& a@b@~@c@"};
