/* XPM */
static char * sbutton_xpm[] = {
"20 20 64 1",
" 	c None",
".	c #BDBEBD",
"+	c #FFFFFF",
"@	c #000000",
"#	c #BCBDBC",
"$	c #5A5D5A",
"%	c #BABBBA",
"&	c #6F706F",
"*	c #979797",
"=	c #787878",
"-	c #C0BEBE",
";	c #747373",
">	c #949494",
",	c #838282",
"'	c #7E7F7E",
")	c #BBBCBB",
"!	c #8C8D8C",
"~	c #CDCBCB",
"{	c #FCFCFC",
"]	c #FCF9F9",
"^	c #707170",
"/	c #7A7A7A",
"(	c #FBFBFB",
"_	c #FEFCFC",
":	c #FEFEFE",
"<	c #FDFDFD",
"[	c #FBF9F9",
"}	c #787978",
"|	c #BBBBBB",
"1	c #7C7C7C",
"2	c #EDEDED",
"3	c #F1F1F1",
"4	c #F9F9F9",
"5	c #8D8E8D",
"6	c #C8C8C8",
"7	c #FBFAF9",
"8	c #F6FF00",
"9	c #D4D3D3",
"0	c #969696",
"a	c #FAF9F8",
"b	c #FF0000",
"c	c #444444",
"d	c #D5D4D4",
"e	c #A2A2A2",
"f	c #F6F4F4",
"g	c #B7B7B7",
"h	c #EEECEC",
"i	c #E3E3E3",
"j	c #959595",
"k	c #F0F0F0",
"l	c #FAFAFA",
"m	c #EEEEEE",
"n	c #F2F1F1",
"o	c #E8E7E6",
"p	c #D5D6D5",
"q	c #D0D0CF",
"r	c #BCBCBC",
"s	c #E7E7E7",
"t	c #EFEFEF",
"u	c #B9B9B9",
"v	c #B7B8B7",
"w	c #B8B9B8",
"x	c #B4B5B4",
"y	c #B2B3B2",
"....................",
".++++++++++++++++++@",
".+......####......$@",
".+..##@@@@@@@@#...$@",
".+.#%@&*=-;>,'@#..$@",
".+#)@!~{]]{{++^@..$@",
".+#@/++(_::{<[+}@.$@",
".+#@|+112:3114{5@#$@",
".+#@+1@@@26@@@7+@#$@",
".+#@+@8@@90@8@a+@#$@",
".+#@+@b@cde@b@f+@.$@",
".+#@++@1ghij@1++@.$@",
".+..@+klm143no+@#.$@",
".+...@pkq+rst@@#..$@",
".+...@+@+@+@+@....$@",
".+...@+@+@+@+@....$@",
".+...@@@@@@@@@....$@",
".+...#uv%wvxyv....$@",
".+$$$$$$$$$$$$$$$$$@",
".@@@@@@@@@@@@@@@@@@@"};
